<svg id="prefix__Capa_1" data-name="Capa 1" xmlns="http://www.w3.org/2000/svg" width="148" height="auto" viewBox="0 0 512 512"><defs><style>.prefix__cls-1{fill:#00c853}</style></defs><path class="prefix__cls-1" d="M473.89 212.67a15 15 0 00-20.22 6.44l-17.45 33.79-16.8-33.61a15 15 0 00-26.84 0L376 252.46l-16.58-33.17a15 15 0 00-14.34-8.29l-.91.05a15 15 0 00-13.62 11.31 15 15 0 00-28-3.1L286 252.46l-16.58-33.17a15 15 0 00-26.84 0L226 252.46l-16.58-33.17a15 15 0 00-28 3.1 15 15 0 00-13.62-11.31l-.91-.05a15 15 0 00-14.34 8.26L136 252.46l-16.58-33.17c-5.46-10.89-21.26-11.16-26.84 0l-16.8 33.61-17.45-33.78a15 15 0 00-26.66 13.77l31 60a15 15 0 0026.75-.18L106 259.54l16.58 33.17a15 15 0 0026.84 0l28-55.9a15 15 0 004.09-7.14 15.28 15.28 0 001.12 3l30 60a15 15 0 0026.84 0L256 259.54l16.58 33.17a15 15 0 0026.84 0l30-60a15.28 15.28 0 001.12-3 14.9 14.9 0 004.1 7.14l27.94 55.9a15 15 0 0026.84 0L406 259.54l16.58 33.17a15 15 0 0026.75.17l31-60a15 15 0 00-6.44-20.21z"/><path class="prefix__cls-1" d="M493 159.33C454.91 66.29 362.62 0 256 0S57.08 66.31 19 159.33A45 45 0 000 196v120a45 45 0 0019 36.67C57.09 445.71 149.38 512 256 512s198.92-66.31 237-159.33A45 45 0 00512 316V196a45 45 0 00-19-36.67zM456 151h-76.64C369.83 110.15 355 75 336 48.74q-2-2.75-4-5.34A228.77 228.77 0 01456.05 151zM271 32.51c41.05 13.78 66.71 75.92 77.49 118.49H271zm-30 0V151h-77.49c8.62-34 21.2-63.07 36.81-84.71 9.37-13 23.32-27.95 40.68-33.78zM180 43.4q-2 2.6-4 5.34C157.05 75 142.17 110.15 132.64 151H56A228.68 228.68 0 01180 43.4zM56 361h76.68c8.73 37.4 23.73 77.32 47.36 107.6A228.68 228.68 0 0156 361zm185 118.49c-41-13.78-66.71-75.92-77.49-118.49H241zm30 0V360.8h77.49C337.7 403.43 312 465.74 271 479.49zm61-10.89c23.63-30.28 38.63-70.39 47.36-107.8H456a229.07 229.07 0 01-124 107.8zM482 316a15 15 0 01-15 15H45a15 15 0 01-15-15V196a15 15 0 0115-15h422a15 15 0 0115 15z"/></svg>