<svg version="1.1" id="prefix__Capa_1" xmlns="http://www.w3.org/2000/svg" x="0" y="0" width="148" height="auto" viewBox="0 0 512 512" xml:space="preserve"><style>.prefix__st0{fill:#00c853}</style><path class="prefix__st0" d="M481 180h-90v302h-30V300h-90v182h-30V240h-90v242h-30V330H31v152H0v30h512v-30h-31V180zm-60 30h30v272h-30V210zM301 330h30v152h-30V330zm-120-60h30v212h-30V270zM61 360h30v122H61V360z"/><path class="prefix__st0" d="M391 30h69.6L316 173.8l-120-120L4.4 244.4l21.2 21.3L196 96.2l120 120L482 51.1V120h30V0H391v30z"/></svg>