<svg data-name="Capa 1" xmlns="http://www.w3.org/2000/svg" width="187px" height="auto" viewBox="0 0 512 512"><path d="M504.5 400.18a7.5 7.5 0 00-7.5 7.5V417a26.53 26.53 0 01-26.5 26.5h-429A26.53 26.53 0 0115 417V223.68a7.5 7.5 0 00-15 0V417a41.55 41.55 0 0041.5 41.5h429A41.55 41.55 0 00512 417v-9.32a7.5 7.5 0 00-7.5-7.5zM470.5 53.5h-22.35a7.5 7.5 0 000 15h22.35A26.53 26.53 0 01497 95v38.5H15V95a26.53 26.53 0 0126.5-26.5h374.28a7.5 7.5 0 000-15H41.5A41.55 41.55 0 000 95v96.48a7.5 7.5 0 0015 0v-43h482v227a7.5 7.5 0 0015 0V95a41.55 41.55 0 00-41.5-41.5z" fill="#00C853"/><path d="M40.5 100.67A23.5 23.5 0 1064 77.17a23.52 23.52 0 00-23.5 23.5zm32 0a8.5 8.5 0 11-8.5-8.5 8.51 8.51 0 018.5 8.5zM97.5 100.67a23.5 23.5 0 1023.5-23.5 23.52 23.52 0 00-23.5 23.5zm32 0a8.5 8.5 0 11-8.5-8.5 8.51 8.51 0 018.5 8.5zM154.5 100.67a23.5 23.5 0 1023.5-23.5 23.52 23.52 0 00-23.5 23.5zm32 0a8.5 8.5 0 11-8.5-8.5 8.51 8.51 0 018.5 8.5zM111 188.5a7.5 7.5 0 00-7.5 7.5v46.92H99a18.52 18.52 0 00-18.5 18.5V311A18.52 18.52 0 0099 329.46h4.5V386a7.5 7.5 0 0015 0v-56.54h4.5A18.52 18.52 0 00141.5 311v-49.58a18.52 18.52 0 00-18.5-18.5h-4.5V196a7.5 7.5 0 00-7.5-7.5zm15.5 72.92V311a3.5 3.5 0 01-3.5 3.5H99a3.5 3.5 0 01-3.5-3.5v-49.58a3.5 3.5 0 013.5-3.5h24a3.5 3.5 0 013.5 3.5zM183.5 188.5a7.5 7.5 0 00-7.5 7.5v93.44h-4.5a18.52 18.52 0 00-18.5 18.5v49.53A18.52 18.52 0 00171.5 376h4.5v10a7.5 7.5 0 0015 0v-10h4.5a18.52 18.52 0 0018.5-18.5v-49.56a18.52 18.52 0 00-18.5-18.5H191V196a7.5 7.5 0 00-7.5-7.5zM199 307.94v49.53a3.5 3.5 0 01-3.5 3.5h-24a3.5 3.5 0 01-3.5-3.5v-49.53a3.5 3.5 0 013.5-3.5h24a3.5 3.5 0 013.5 3.5zM256 188.5a7.5 7.5 0 00-7.5 7.5v11.15H244a18.52 18.52 0 00-18.5 18.5v49.54a18.52 18.52 0 0018.5 18.5h4.5V386a7.5 7.5 0 0015 0v-92.31h4.5a18.52 18.52 0 0018.5-18.5v-49.53a18.52 18.52 0 00-18.5-18.5h-4.5V196a7.5 7.5 0 00-7.5-7.5zm15.5 37.15v49.54a3.5 3.5 0 01-3.5 3.5h-24a3.5 3.5 0 01-3.5-3.5v-49.54a3.5 3.5 0 013.5-3.5h24a3.51 3.51 0 013.5 3.5zM328.5 188.5a7.5 7.5 0 00-7.5 7.5v74h-4.5a18.52 18.52 0 00-18.5 18.5v49.54a18.52 18.52 0 0018.5 18.5h4.5V386a7.5 7.5 0 0015 0v-29.42h4.5a18.52 18.52 0 0018.5-18.5v-49.54A18.52 18.52 0 00340.5 270H336v-74a7.5 7.5 0 00-7.5-7.5zm15.5 100v49.54a3.5 3.5 0 01-3.5 3.5h-24a3.5 3.5 0 01-3.5-3.5v-49.5a3.5 3.5 0 013.5-3.5h24a3.5 3.5 0 013.5 3.5zM401 188.5a7.5 7.5 0 00-7.5 7.5v36.09H389a18.52 18.52 0 00-18.5 18.5v49.53a18.52 18.52 0 0018.5 18.5h4.5V386a7.5 7.5 0 0015 0v-67.38h4.5a18.52 18.52 0 0018.5-18.5v-49.53a18.52 18.52 0 00-18.5-18.5h-4.5V196a7.5 7.5 0 00-7.5-7.5zm15.5 62.09v49.53a3.5 3.5 0 01-3.5 3.5h-24a3.5 3.5 0 01-3.5-3.5v-49.53a3.5 3.5 0 013.5-3.5h24a3.5 3.5 0 013.5 3.5z" fill="#00C853"/><path d="M108 282.5h6a7.5 7.5 0 000-15h-6a7.5 7.5 0 000 15zM108 304.5h6a7.5 7.5 0 000-15h-6a7.5 7.5 0 000 15zM180.5 314.2a7.5 7.5 0 000 15h6a7.5 7.5 0 000-15zM186.5 336.2h-6a7.5 7.5 0 000 15h6a7.5 7.5 0 100-15zM253 231.92a7.5 7.5 0 000 15h6a7.5 7.5 0 000-15zM259 253.92h-6a7.5 7.5 0 000 15h6a7.5 7.5 0 000-15zM325.5 294.81a7.5 7.5 0 000 15h6a7.5 7.5 0 000-15zM331.5 316.81h-6a7.5 7.5 0 000 15h6a7.5 7.5 0 000-15zM398 256.85a7.5 7.5 0 000 15h6a7.5 7.5 0 000-15zM404 278.85h-6a7.5 7.5 0 000 15h6a7.5 7.5 0 000-15z" fill="#00C853"/></svg>