<?xml version="1.0" standalone="no"?>
<!DOCTYPE svg PUBLIC "-//W3C//DTD SVG 20010904//EN"
 "http://www.w3.org/TR/2001/REC-SVG-20010904/DTD/svg10.dtd">
<svg version="1.0" xmlns="http://www.w3.org/2000/svg"
 width="1040.000000pt" height="1040.000000pt" viewBox="0 0 1040.000000 1040.000000"
 preserveAspectRatio="xMidYMid meet">
<metadata>
Created by potrace 1.11, written by Peter Selinger 2001-2013
</metadata>
<g transform="translate(0.000000,1040.000000) scale(0.100000,-0.100000)"
fill="#000000" stroke="none">
<path d="M5200 10380 c0 -17 -151 -139 -265 -215 -407 -271 -994 -450 -1755
-535 -319 -35 -499 -44 -922 -45 l-418 0 -2 -550 c-7 -2244 -7 -2286 23 -2795
20 -346 111 -840 236 -1290 37 -131 113 -357 143 -425 10 -22 35 -83 56 -135
84 -213 249 -563 339 -724 232 -411 604 -924 916 -1262 216 -235 660 -638 928
-844 217 -167 545 -383 683 -450 44 -22 48 -22 72 -7 23 15 72 17 454 17 l429
0 124 102 c125 102 314 269 444 391 l70 66 -327 1 c-182 0 -328 4 -328 9 0 5
21 26 48 47 109 88 286 248 424 381 l146 143 289 0 288 0 50 62 c148 185 350
455 361 483 5 13 -31 15 -244 17 l-250 3 113 152 c62 84 150 211 196 282 l84
130 236 1 235 0 77 142 c42 79 105 204 140 278 l64 135 -213 3 c-123 1 -214 6
-214 12 0 5 24 62 54 127 50 109 131 301 168 398 l16 40 212 5 212 5 35 105
c46 140 123 410 123 432 0 17 -16 18 -201 18 -161 0 -200 3 -196 13 7 20 85
360 105 462 l17 90 202 3 c198 2 201 3 206 25 10 40 56 374 63 456 l7 81 -203
0 -202 0 7 73 c5 39 11 169 14 287 l6 215 208 3 207 2 0 280 0 280 -207 2
-208 3 0 280 0 280 208 3 207 2 0 280 0 280 -207 2 -208 3 -3 555 -2 555 -303
-3 c-791 -10 -1522 80 -2092 259 -351 111 -670 277 -887 463 -79 67 -88 73
-88 56z m2063 -1393 c47 -30 67 -74 67 -145 l0 -63 -42 3 -43 3 -3 50 c-6 86
-2 85 -267 85 -265 0 -261 1 -267 -85 l-3 -50 -40 0 -40 0 -3 49 c-2 27 -1 60
2 72 9 35 55 83 89 93 18 6 142 9 277 8 218 -2 249 -4 273 -20z m-3303 -220
c113 -41 273 -98 355 -127 164 -57 190 -72 175 -101 -6 -10 -10 -114 -10 -236
0 -189 3 -227 20 -283 11 -36 20 -68 20 -72 0 -5 -27 -8 -60 -8 -33 0 -60 3
-60 8 0 4 9 36 20 72 17 56 20 94 20 273 0 119 -4 207 -9 207 -5 0 -31 -9 -58
-21 -26 -12 -181 -77 -343 -146 -394 -168 -326 -169 -790 10 -195 75 -370 144
-387 152 -38 17 -42 39 -10 59 23 15 659 259 737 282 83 25 156 12 380 -69z
m3770 -340 c0 -199 -3 -276 -12 -285 -8 -8 -49 -12 -120 -12 l-108 0 0 75 0
75 -140 0 -140 0 0 -75 0 -75 -235 0 -235 0 0 75 0 75 -140 0 -140 0 0 -75 0
-75 -108 0 c-71 0 -112 4 -120 12 -9 9 -12 86 -12 285 l0 273 755 0 755 0 0
-273z m-1983 159 c29 -16 62 -40 75 -54 18 -20 13 -18 -27 10 -126 90 -265 89
-386 -2 -30 -22 -58 -40 -63 -40 -18 0 111 90 150 105 26 10 66 14 119 12 66
-3 90 -8 132 -31z m-2320 -386 c233 -90 248 -90 476 6 121 51 133 54 213 54
l84 0 0 -105 c0 -168 -7 -176 -280 -295 -185 -81 -199 -85 -265 -85 -66 1 -82
6 -270 89 -110 48 -209 95 -219 104 -39 35 -56 92 -56 195 l0 97 80 0 c75 0
93 -5 237 -60z m3223 -115 l0 -115 -50 0 -50 0 0 108 c0 60 3 112 7 115 3 4
26 7 50 7 l43 0 0 -115z m748 -2 l3 -113 -51 0 -50 0 0 116 0 115 48 -3 47 -3
3 -112z m-938 -123 l0 -80 140 0 139 0 3 78 3 77 233 3 232 2 0 -80 0 -80 140
0 140 0 0 80 0 80 120 0 120 0 0 -215 0 -215 -755 0 -755 0 0 215 0 215 120 0
120 0 0 -80z m-3149 -1573 c22 -27 39 -54 39 -59 0 -12 -53 56 -87 111 -13 20
-23 41 -22 46 0 6 7 -3 16 -20 9 -16 33 -51 54 -78z m508 71 c-11 -22 -83
-122 -102 -143 -22 -23 20 45 62 102 49 67 59 77 40 41z m-95 -1731 c14 -10
16 -26 14 -97 l-3 -85 -35 0 -35 0 -3 85 c-2 71 0 87 14 97 10 7 21 13 24 13
3 0 14 -6 24 -13z m3023 -138 c24 -10 58 -30 76 -43 23 -18 37 -22 47 -16 27
17 128 11 168 -9 72 -37 122 -113 122 -186 0 -19 5 -35 10 -35 6 0 30 -18 55
-41 48 -44 85 -124 85 -184 0 -58 -37 -140 -82 -180 -51 -47 -94 -64 -174 -72
-58 -5 -67 -4 -89 17 -21 20 -25 33 -25 84 -1 101 -49 184 -135 229 -56 30
-164 30 -221 0 -47 -25 -101 -82 -120 -129 -8 -19 -14 -62 -14 -97 0 -55 -3
-67 -25 -87 -22 -21 -30 -22 -91 -16 -83 8 -121 24 -172 71 -70 63 -98 172
-68 258 29 80 84 135 163 162 31 11 40 20 49 52 25 87 93 175 162 212 79 42
194 47 279 10z m-3441 -90 c56 -54 67 -85 39 -109 -8 -7 -25 -10 -38 -6 -25 6
-117 97 -117 116 0 13 37 50 51 50 5 0 35 -23 65 -51z m884 31 c11 -11 20 -25
20 -30 0 -19 -92 -110 -117 -116 -29 -8 -53 11 -53 41 0 22 98 125 119 125 6
0 20 -9 31 -20z m-315 -124 c265 -131 310 -481 87 -674 -29 -26 -60 -63 -69
-84 l-17 -38 -177 0 -177 0 -11 30 c-5 17 -41 61 -80 99 -38 37 -80 90 -94
117 -92 181 -37 406 126 518 126 87 277 99 412 32z m2867 -296 c45 -13 93 -52
115 -93 8 -17 18 -68 21 -114 4 -66 9 -87 23 -97 35 -24 49 -67 49 -154 0 -91
-15 -140 -51 -166 -20 -13 -53 -16 -206 -16 l-183 0 -32 29 c-32 29 -33 32
-37 122 -4 107 9 162 44 185 22 14 25 24 25 78 0 82 15 131 53 172 29 32 91
63 127 64 8 0 32 -5 52 -10z m-3568 -30 c20 -7 26 -17 26 -39 0 -36 -12 -41
-105 -41 -63 0 -76 3 -85 19 -13 25 -3 50 24 61 29 12 109 12 140 0z m1189 1
c30 -12 40 -36 26 -62 -9 -18 -19 -19 -97 -17 l-87 3 -3 33 c-3 26 1 34 20 41
30 13 110 13 141 2z m-1005 -414 c3 -23 -6 -38 -46 -78 -53 -52 -93 -64 -110
-31 -13 25 -5 41 47 95 38 39 51 47 76 45 25 -2 31 -8 33 -31z m801 -21 c56
-60 55 -59 41 -87 -17 -31 -56 -23 -105 22 -49 45 -64 81 -45 104 24 28 55 17
109 -39z m-289 -184 c0 -52 -3 -62 -30 -87 -27 -26 -38 -29 -114 -33 -144 -8
-196 26 -196 124 l0 54 170 0 170 0 0 -58z"/>
<path d="M3682 4288 c-16 -16 -15 -43 1 -56 7 -6 32 -15 55 -20 23 -6 54 -17
68 -27 33 -21 64 -73 64 -106 0 -15 8 -37 19 -50 16 -21 22 -22 45 -11 20 9
26 19 26 43 0 121 -117 239 -237 239 -16 0 -34 -5 -41 -12z"/>
<path d="M6624 4006 c-32 -32 -34 -38 -34 -105 l0 -71 106 0 106 0 -4 76 c-3
71 -6 78 -36 105 -46 42 -93 40 -138 -5z"/>
<path d="M6671 3736 c-7 -8 -11 -36 -9 -63 3 -42 6 -48 27 -51 30 -5 41 12 41
64 0 56 -32 83 -59 50z"/>
<path d="M5207 543 c-24 -23 9 -31 39 -8 18 14 18 14 -7 15 -14 0 -29 -3 -32
-7z"/>
</g>
</svg>
