<svg version="1.1" id="prefix__Layer_1" xmlns="http://www.w3.org/2000/svg" x="0" y="0" width="790" height="auto" viewBox="0 0 526 252.9" xml:space="preserve"><style>.prefix__st0{fill:#212121}.prefix__st1{fill:#cbcbcb}.prefix__st2{fill:#fff}.prefix__st3{fill:#424040}.prefix__st4{fill:#f2f2f2}.prefix__st5{fill:#00c853}.prefix__st6{fill:#efe6d8}.prefix__st7{fill:#424242}.prefix__st8{fill:#303030}.prefix__st9{fill:#00e676}.prefix__st11{fill:#c4bfbd}.prefix__st12{fill:#9e9e9e}.prefix__st13{fill:#e0e0e0}.prefix__st14{fill:#040505}.prefix__st15{fill:#3f3f3f}.prefix__st16{fill:#f8f8f8}.prefix__st17{fill:#f1f1f1}.prefix__st18{fill:#1b1b1f}.prefix__st19{fill:#fff9f0}.prefix__st20{fill:#d2d6cd}.prefix__st22{fill:#424240}.prefix__st28{fill:#2b3639}.prefix__st29{fill:#1a2226}.prefix__st30{fill:#b9f6ca}.prefix__st33{fill:#757575}.prefix__st36{fill:#009ddc}</style><path transform="rotate(-60.46 229.509 170.961)" class="prefix__st0" d="M223 148.5h13.1v45H223z"/><path class="prefix__st1" d="M259.9 183.1l-4.7 8.3-8.1-4.6 4.7-8.3 8.1 4.6z"/><path transform="rotate(-60.469 268.088 193.29)" class="prefix__st2" d="M259.5 191.5h17.1v3.5h-17.1z"/><path class="prefix__st3" d="M259.6 182.9l-4.8 8.4 7.5 8.6 8.5-15-11.2-2z"/><path transform="rotate(-60.469 248.291 181.936)" class="prefix__st4" d="M241.5 179.2h13.6v5.5h-13.6z"/><path transform="rotate(-82.131 227.132 186.354)" class="prefix__st0" d="M204.6 179.8h45v13.1h-45z"/><path transform="rotate(-82.131 223.478 214.7)" class="prefix__st1" d="M218 209.9h11v9.6h-11z"/><path transform="rotate(-82.131 221.069 232.255)" class="prefix__st2" d="M219.3 223.7h3.5v17.1h-3.5z"/><path class="prefix__st3" d="M218 219.2l9.6 1.3 2.3 11.2-17.1-2.4 5.2-10.1z"/><path transform="rotate(-82.131 224.378 207.92)" class="prefix__st4" d="M221.6 201.1h5.5v13.6h-5.5z"/><path class="prefix__st5" d="M177 79.4c-5.4-13.6 1.3-29.1 14.9-34.5 13.6-5.4 29.1 1.3 34.5 14.9 2.4 5.9 2.5 12.5.4 18.6l-1.9-.7c4.5-12.8-2.2-26.8-15-31.3s-26.8 2.2-31.3 15c-2 5.6-1.9 11.7.3 17.2l-1.9.8z"/><path class="prefix__st6" d="M206.5 104.7l-.7-6.5h-8.1l-.1 6.5c1.4 1.3 8.3.9 8.9 0zM228.8 80c0 3.3-2.7 6-6 6s-6-2.7-6-6 2.7-6 6-6 6 2.7 6 6zM186 81.1c0 3.3-2.7 6-6 6s-6-2.7-6-6 2.7-6 6-6 6 2.7 6 6z"/><path class="prefix__st6" d="M223.9 77.3c.1 12.3-10 23.5-22.3 23.6-12.3.1-22.2-11-22.3-23.3l.2-4.1c-.1-12.3 9.8-23.5 22.1-23.6 12.3-.1 22.4 11 22.5 23.3l-.2 4.1z"/><path class="prefix__st7" d="M223.8 65.5c-.6-7.1-7.3-18.7-23.1-18.5-15.8 1.5-21 14.1-21.1 21.2 0 .7-.2 9.3-.2 9.3.1 12.3 9.8 19.7 22.1 19.6s22.8-7.6 22.8-19.9c-.1.1-.1-6.2-.5-11.7z"/><path class="prefix__st8" d="M183.3 56.8c6.6 6.8 23.2 6.9 33.5 3.6 5-1.6 7.1-3.7 10.1-13.7-11.7 4.2-12.3 5.1-12.3 5.1s5.8-6 10.9-8.2c-5.7-2.7-16-2.1-21.9 1.5.4-1.3 1.8-3 9.4-5.7-6.7-.3-23.6.3-25.8 9.6 0 0-2.3-.9-.2-4.2-3.7 1.2-8.3 7.2-3.7 12z"/><path class="prefix__st2" d="M173.6 85.4c.2.8-.3 1.6-1.1 1.7h-.1c-.8.2-1.6-.3-1.7-1.1l-1-4.3c-.2-.8.3-1.6 1.1-1.8h.1c.8-.2 1.6.3 1.7 1.1l1 4.4z"/><path class="prefix__st9" d="M171.6 77l3.8-.8c.6-.1 1.2.3 1.4.9l2.3 10.4c.1.6-.3 1.2-.9 1.4l-3.8.8c-.6.1-1.2-.3-1.4-.9l-2.3-10.4c-.1-.7.3-1.3.9-1.4z"/><path class="prefix__st5" d="M173.7 73.4l3.9-.9c.6-.1 1.2.3 1.4.9l3.7 16.3c.1.6-.3 1.2-.9 1.4l-3.9.9c-.6.1-1.2-.3-1.4-.9l-3.7-16.3c-.1-.6.3-1.2.9-1.4z"/><path class="prefix__st2" d="M229.7 85.4c-.2.8.3 1.6 1.1 1.8h.1c.8.2 1.6-.3 1.7-1.1l1-4.3c.2-.8-.3-1.6-1.1-1.7h-.1c-.8-.2-1.6.3-1.7 1.1l-1 4.2z"/><path class="prefix__st9" d="M224.2 87.4l2.3-10.4c.1-.6.8-1 1.4-.9l3.8.8c.6.1 1 .8.9 1.4l-2.3 10.4c-.1.6-.8 1-1.4.9l-3.8-.8c-.6-.2-1-.8-.9-1.4z"/><path class="prefix__st5" d="M220.7 89.4c-.2.8.3 1.6 1.1 1.7l3.3.7c.8.2 1.6-.3 1.7-1.1l3.5-15.7c.2-.8-.3-1.6-1.1-1.7l-3.3-.7c-.8-.2-1.6.3-1.7 1.1l-3.5 15.7z"/><path class="prefix__st6" d="M167.7 123.4s-14.3 14.5-9.7 17.9 13.7.7 13.7.7l-4-18.6z"/><path d="M242.9 142.2h-72.8l2.3-40.8h72.8l-2.3 40.8z" fill="#484a45"/><path class="prefix__st2" d="M240.4 139.6h-67.7l2.3-35.7h67.7l-2.3 35.7z"/><path class="prefix__st11" d="M59.8 183.5h6.7v27h-6.7z"/><path class="prefix__st3" d="M86 179c0 3.8-3.1 6.8-6.8 6.8H46.9c-3.8 0-6.8-3.1-6.8-6.8 0-3.8 3.1-6.8 6.8-6.8h32.2c3.8-.1 6.9 3 6.9 6.8zM58 205.6h10.7v25.6H58z"/><path class="prefix__st11" d="M58.1 219.8l-33.2 7.4v4l33.2-4.3v-7.1zM61 219.8h4.3v11.4H61z"/><path class="prefix__st3" d="M30.3 237.2c0 2.4-2 4.4-4.4 4.4s-4.4-2-4.4-4.4 2-4.4 4.4-4.4c2.4 0 4.4 2 4.4 4.4z"/><path class="prefix__st11" d="M68.6 219.8l33.2 7.4v4l-33.2-4.3v-7.1z"/><path class="prefix__st3" d="M67.6 237.2c0 2.4-2 4.4-4.4 4.4s-4.4-2-4.4-4.4 2-4.4 4.4-4.4c2.4 0 4.4 2 4.4 4.4z"/><path class="prefix__st12" d="M122.5 179.4H54.9c-5 0 10.2-13.8 10.2-18.8-.3-28.6-11.7-72-11.8-72.4-.5-2.4 1-4.7 3.4-5.2 2.2-.5 4.4.8 5 2.9 0 .1 3 11.3 5.9 25.9 4 19.8 6 36.1 6.2 48.6 0 5.6 4.6 10.2 10.2 10.2h38.6c2.4-.1 4.5 1.7 4.6 4.1.1 2.4-1.7 4.5-4.1 4.6h-.4l-.2.1z"/><path class="prefix__st12" d="M4.3 82.8l52.9.1 18.2 89.3-56.9-1.8L4.3 82.8z"/><path class="prefix__st13" d="M69.4 179.4H30.8c-5 0-9.8-2-13.3-5.5s-5.5-8.3-5.6-13.3C11.6 132 .3 88.7.2 88.2c-.6-2.3.7-4.7 3-5.3s4.7.7 5.3 3v.1c0 .1 3 11.3 5.9 25.9 4 19.7 6 36.1 6.1 48.6 0 5.6 4.6 10.1 10.2 10.2h38.6c2.4-.1 4.5 1.7 4.6 4.1.1 2.4-1.7 4.5-4.1 4.6h-.4z"/><path class="prefix__st3" d="M58.9 185h8.4v2.2h-8.4z"/><path class="prefix__st1" d="M109.3 141.2c-.8 0-1.7 0-2.5-.1-11.1-.4-19.9-6.7-25.6-18.2-2.5-5.2-4.3-10.8-5.1-16.5l7.9-1-3.9.5 3.9-.5c.8 4.9 2.3 9.7 4.5 14.2 4.4 8.7 10.7 13.3 18.8 13.6 12.7.6 25.2-3.5 35.2-11.5l5.4 5.9c-11.1 8.8-24.6 13.7-38.6 13.6z"/><path class="prefix__st3" d="M86.3 49.8c.1 21.9-17.6 39.7-39.5 39.7C25 89.6 7.2 71.9 7.1 50c0-21.9 17.6-39.6 39.5-39.7 21.9-.1 39.7 17.6 39.7 39.5z"/><path class="prefix__st1" d="M78.2 59.2c.9 11.7-7.9 21.8-19.6 22.7-11.6.8-21.7-8-22.6-19.6l-.6-7.9c-.8-11.7 7.9-21.8 19.6-22.7 11.6-.8 21.8 7.9 22.6 19.6l.6 7.9z"/><path class="prefix__st1" d="M40.3 61.8c.2 3.1-2.1 5.8-5.3 6.1-3.1.2-5.8-2.1-6.1-5.3-.2-3.1 2.1-5.8 5.2-6.1 3.3-.2 6 2.1 6.2 5.3z"/><path class="prefix__st3" d="M45.8 33.8l6 8.5c1.2-.5 2.4-1 3.6-1.4L50.6 32c-1.6.4-3.2 1-4.8 1.8zM40.4 37.8l7 7.2c1.2-.8 2.4-1.6 3.7-2.3l-6.8-8c-1.4.9-2.7 1.9-3.9 3.1zM52.3 31.6l4 9c.9-.3 2.1-.5 3-.6-.6-1.9-2.2-5.7-3.3-8.8-1.2 0-2.4.1-3.7.4zM57.7 31.2l2.4 8.6h.3c.8-.1 1.5-.2 2.3-.2-.1-2 .3-5 .2-7.7-1.8-.3-3.5-.5-5.2-.7zM36.4 43.4l8.1 4c.7-.7 1.5-1.4 2.3-2l-7.9-6c-.9 1.3-1.8 2.6-2.5 4zM34.6 51.6c0 4.3 1.5 8.4 4.1 11.8-.1-.6-.1-1.3-.1-1.9 0-3.2.8-6.3 2.3-9.1l-6.3-.8zM34.7 49.7l6.6 1.9c.8-1.2 1.6-2.4 2.6-3.5l-8.1-3.3c-.5 1.6-.9 3.2-1.1 4.9zM72.6 42.9c1.6 1.4 3.1 2.9 4.4 4.6-.3-2.8-1.3-5.5-2.7-7.9l-1.7 3.3zM70 35l-1.8 5.4c1.3.5 2.6 1.1 3.7 1.9.5-1.2 1.1-2.5 1.7-3.9-1.1-1.3-2.3-2.4-3.6-3.4zM64.4 32.3l-1 7.3c1.3 0 2.6.2 3.9.5.4-1.7.8-3.9 1.3-6-1.3-.7-2.7-1.3-4.2-1.8z"/><path class="prefix__st1" d="M56.4 31.2H56c1 3 2.6 6.9 3.3 8.8.3-.1.4-.1.8-.2l-2.4-8.6h-1.3zM62.8 31.9c.1 2.7-.3 5.7-.2 7.7h.8l1-7.3c-.5-.1-1-.3-1.6-.4zM68.5 34.1c-.4 2.1-.9 4.3-1.3 6l.9.3L70 35c-.5-.3-.9-.6-1.5-.9zM73.5 38.4c-.6 1.3-1.2 2.7-1.7 3.9.3.2.5.4.8.6l1.7-3.3c-.2-.4-.5-.8-.8-1.2zM50.6 31.9l4.8 8.9c.4-.1.4-.1.8-.3l-4-9c-.5.2-1 .3-1.6.4zM44.3 34.7l6.8 8 .8-.4-6-8.5c-.6.2-1.1.5-1.6.9zM38.9 39.4l7.9 6c.3-.3.3-.3.7-.5l-7.2-7c-.4.4-.9 1-1.4 1.5zM35.9 44.8l8.1 3.3c.3-.4.3-.3.6-.7l-8.1-4c-.3.5-.5.9-.6 1.4zM34.6 51.5l6.3.8c.2-.4.3-.5.5-.8l-6.7-1.9c0 .7-.1 1.3-.1 1.9z"/><path class="prefix__st2" d="M71.9 67l-18.3 1s3.6 6.3 9.5 5.9 8.6-5.5 8.8-6.9z"/><path class="prefix__st14" d="M69.9 59.9c.5 1.2 1.9 1.8 3.1 1.3s1.8-1.9 1.3-3.1c-.5-1.2-1.8-1.8-3-1.3-1.2.4-1.9 1.8-1.4 3.1zM50.2 61.3c.5 1.2 1.9 1.8 3.1 1.3 1.2-.5 1.8-1.9 1.3-3.1-.5-1.2-1.8-1.8-3-1.3-1.2.4-1.9 1.8-1.4 3.1z"/><path class="prefix__st1" d="M94.6 219.3l.8 9.2h9.1l-1.6-11.1-8.3 1.9zM112.8 214.7l.8 9.2h9l-1.5-11.1-8.3 1.9z"/><path class="prefix__st15" d="M78 151v2.9c0 3.3 2.2 4.9 5.3 5.2h22.6c6.5 0 10.7 5.9 11.3 12.3.9 8.5 3.1 26.1 5 40.2.2 1.1-10.5 1.9-10.5 1.9l-5.3-41.8c0-.4-.1-.9-.5-.9H49.6c-5.2-.1-9.4-4.4-9.4-9.6V151H78z"/><path class="prefix__st2" d="M110.8 232.3h27.6v3.8h-27.6z"/><path class="prefix__st3" d="M123 218.4c-2 .2-3.4 2-3.2 4l-7.4.5-2 9.6h27.9V230s-12.3-6.9-14.3-8l-1-3.6z"/><path class="prefix__st15" d="M63.1 151v2.9c0 3.3 2.2 4.9 5.2 5.2H87c6.5 0 10.8 5.9 11.5 12.3 1 9.9 3.9 32.3 5.9 47l-10.6 1.8-6.2-48.6c0-.4-.2-.9-.6-.9H49.6c-5.2-.1-9.4-4.4-9.4-9.7v-10h22.9z"/><path class="prefix__st2" d="M92.5 237.6h27.6v3.5H92.5z"/><path class="prefix__st3" d="M105.5 223.5c-2 .2-3.4 2-3.2 3.9l-7.7.5-2 9.6H120v-2.4s-12.1-6.8-14.2-7.9l-.3-3.7z"/><path class="prefix__st7" d="M40.2 114.4l-11.7-4.2c.9-11.2 12.1-24.5 29.9-24.5s29 13.3 29.9 24.6L78 114.4v39.5H40.2v-39.5z"/><path class="prefix__st1" d="M51.2 86.4c.9-.2 1.9-.4 2.8-.5l.7-6.8 7.2-.3.3 6.9c1.2.1 2.3.3 3.5.6v1c-.2 4.5-3.6 7.9-7.6 7.7s-7-4-6.9-8.4v-.2z"/><path class="prefix__st16" d="M92.5 216.9l.8 3.8 11.6-1.9-.5-4.1-11.9 2.2zM110.6 212.1l.8 3.8L123 214l-.5-4.1-11.9 2.2z"/><path class="prefix__st1" d="M63.7 142.8c-.8 0-1.7 0-2.5-.1-11-.4-19.9-6.7-25.6-18.2-2.1-4.3-3.6-8.8-4.6-13.4l9.2 3.3c.7 2.3 1.5 4.6 2.6 6.8 4.4 8.7 10.7 13.3 18.8 13.6 12.7.5 25.2-3.5 35.2-11.5l5.4 5.9c-10.9 8.9-24.5 13.7-38.5 13.6z"/><path class="prefix__st11" d="M459.5 183.5h6.7v27h-6.7z"/><path class="prefix__st3" d="M440 179c0 3.8 3.1 6.8 6.8 6.8H479c3.8 0 6.8-3.1 6.8-6.8 0-3.8-3.1-6.8-6.8-6.8h-32.2c-3.7 0-6.8 3-6.8 6.8zM457.3 205.6H468v25.6h-10.7z"/><path class="prefix__st11" d="M467.9 219.8l33.2 7.4v4l-33.2-4.3v-7.1zM460.6 219.8h4.3v11.4h-4.3z"/><path class="prefix__st3" d="M495.7 237.2c0 2.4 2 4.4 4.4 4.4s4.4-2 4.4-4.4-2-4.4-4.4-4.4c-2.5 0-4.4 2-4.4 4.4z"/><path class="prefix__st11" d="M457.4 219.8l-33.2 7.4v4l33.2-4.3v-7.1z"/><path class="prefix__st3" d="M429.6 237.2c0 2.4-2 4.4-4.4 4.4s-4.4-2-4.4-4.4 2-4.4 4.4-4.4 4.4 2 4.4 4.4zM458.4 237.2c0 2.4 2 4.4 4.4 4.4s4.4-2 4.4-4.4-2-4.4-4.4-4.4c-2.5 0-4.4 2-4.4 4.4z"/><path class="prefix__st12" d="M403.4 179.4h67.7c5 0-10.2-13.8-10.2-18.8.3-28.6 11.6-71.7 11.8-72.1.7-2.3-.6-4.7-2.9-5.4-2.3-.7-4.7.6-5.4 2.9 0 .1 0 .2-.1.2v.1c0 .1-3 11-5.9 25.6-4 19.7-6 36.1-6.1 48.6 0 5.6-4.6 10.2-10.2 10.2h-38.6c-2.4.1-4.3 2.2-4.1 4.6 0 2.2 1.8 4 4 4.1z"/><path class="prefix__st12" d="M522.7 82.9l-54.5-.2-17.7 89.4 56.9-1.8 15.3-87.4z"/><path class="prefix__st13" d="M456.6 179.4h38.6c5 0 9.8-2 13.3-5.5s5.5-8.3 5.5-13.3c.3-28.6 11.7-71.9 11.8-72.4.5-2.3-.9-4.7-3.3-5.2-2.2-.5-4.4.8-5.1 2.9v.1c0 .1-3 11.3-5.9 25.9-4 19.7-6 36.1-6.1 48.6 0 5.6-4.6 10.2-10.2 10.2h-38.6c-2.4.1-4.3 2.2-4.1 4.6 0 2.2 1.8 4 4.1 4.1z"/><path class="prefix__st3" d="M458.6 185h8.4v2.2h-8.4z"/><path class="prefix__st0" d="M451.9 150.7v2.7c0 3.4-2.4 5.1-5.6 5.7h-33.6c-6.7 0-11.6 5.6-11.6 12.3v44.9h12.2v-44.9c0-.4-.1-.6.3-.6h67.5c5.4-.1 9.8-4.5 9.9-9.9v-10.2h-39.1z"/><path class="prefix__st0" d="M479.2 150.7v2.7c0 3.4-2.1 5.3-5.3 5.9l-27.6-.1c-8.4-.3-12.9 2.8-14.2 9.4l-3.8 41.2 11.7 2.7 4.9-41.2c.1-.4.1-.5.5-.4h35.8c5.5-.1 9.8-4.5 9.9-10v-10.2h-11.9z"/><path class="prefix__st1" d="M436.5 223.2l-9.3-2.5 2.3-11.5 9.3 2.5-2.3 11.5z"/><path class="prefix__st17" d="M440.9 214.6l-14.3-3.8 1.5-5.3 14.3 3.8-1.5 5.3z"/><path class="prefix__st1" d="M402 215.5h9.9v11H402z"/><path class="prefix__st2" d="M384.3 237h31.6v3.5h-31.6z"/><path class="prefix__st3" d="M400.5 226.1v-4.2c2.2.2 3.9 2.1 3.8 4.3h7.3l4 10.8h-31.3v-2.4c3.7-3.3 16.2-8.5 16.2-8.5z"/><path transform="rotate(-74.989 422.24 231.972)" class="prefix__st2" d="M420.5 216.2h3.5v31.6h-3.5z"/><path class="prefix__st3" d="M426 219.8l1.1-4.1c2.2.8 3.3 3.1 2.6 5.3l7 1.9 1.1 11.4-30.4-8.2.7-2.5c4.5-2 17.9-3.8 17.9-3.8z"/><path class="prefix__st17" d="M400 211.4h14.2v5.5H400z"/><path class="prefix__st3" d="M491.1 112.5l12.5-1.3c-.1-.7-.7-4.5-.8-5.2-2.1-11.2-13.4-23.3-30.7-23.3-18.5 0-30 13.8-30.9 25.5l10.8 4.3v41.1h39.2l-.1-41.1z"/><path class="prefix__st1" d="M479.5 83.5c-1-.2-1.9-.4-2.9-.5l-.7-7-7.5-.3-.3 7.2c-1.2.1-2.4.3-3.6.6v1.1c.2 4.6 3.7 8.1 7.8 7.9s7.3-4.1 7.1-8.7c.1 0 .1-.2.1-.3z"/><path class="prefix__st15" d="M444.9 58.2c.2 3.2 2.8 5.6 6 5.4 3.2-.2 5.6-2.8 5.4-6s-2.8-5.6-6-5.4c-3.1.1-5.6 2.8-5.4 6z"/><path class="prefix__st1" d="M449 59.7c.5 11.8 10.5 20.9 22.3 20.4s20.9-10.5 20.3-22.3l-.4-8c-.2-4.8 0-11.5-2.8-14.9-4.1-5-12.5-5.7-19.5-5.4-11.8.5-20.9 10.5-20.4 22.3l.5 7.9z"/><path class="prefix__st1" d="M486.4 57.7c.2 3.2 2.8 5.6 6 5.4 3.2-.2 5.6-2.8 5.4-6s-2.8-5.6-6-5.4c-3.1.1-5.6 2.8-5.4 6z"/><path class="prefix__st15" d="M489 55.3c.7-.5 1.4-1 2-1.5 0 0 2.7-6.6 1.4-11.2-.8-2.6-2-5-3.6-7.2l-5.3 4.8c2.2 3.1 4.3 7.7 5.5 15.1zM454.6 38.5l-4.2-1.5s-4 5.8-2 15.7l.5.2s.2-10 5.7-14.4z"/><path class="prefix__st18" d="M488.7 35.2l-5.4 4.8s-21 2.2-30.6-1.7c-4.7-1.9-5.9-2.9-7.1-13.5 6.4 9.7 43.1-15.5 43.1 10.4z"/><path class="prefix__st19" d="M468.3 62.3c0 .3.3.5.5.5.3 0 .5-.3.5-.5 0-.3-.3-.5-.5-.5-.3-.1-.5.2-.5.5zM466 60.7c0 .2.2.4.4.3.2 0 .4-.2.3-.4 0-.2-.2-.3-.4-.3s-.3.1-.3.4zM463.9 62.7c0 .3.3.5.5.5.3 0 .5-.2.5-.5s-.3-.5-.5-.5c-.3-.1-.5.2-.5.5 0-.1 0 0 0 0zM462.9 60.4c0 .2.3.4.5.3.2 0 .3-.2.4-.4 0-.2-.2-.4-.5-.4s-.5.3-.4.5c-.1 0-.1 0 0 0zM460.6 62c0 .3.3.5.5.5.3-.1.4-.4.3-.7-.1-.2-.2-.3-.4-.3s-.4.3-.4.5zM458.1 63.1c0 .2.2.4.4.4s.4-.2.4-.4-.2-.4-.4-.4-.4.2-.4.4zM471 63.9c0 .2.2.4.4.4s.4-.2.4-.5c0-.2-.2-.4-.5-.4-.1 0-.3.2-.3.5zM470.8 61.5c0 .2.2.4.5.4.2 0 .4-.2.4-.4s-.2-.4-.5-.4c-.3-.1-.4.2-.4.4zM473.8 63.6c0 .2.2.4.5.4.2 0 .4-.3.4-.5s-.2-.3-.4-.4c-.3.1-.5.3-.5.5z"/><path class="prefix__st14" d="M443.4 55.7c0 .3 1 5.4 1.5 6.8.4 1.1 1.7 3.3 3.5 3.3l9.5.1c3.3 0 4.4-8 4.6-9.7.3-.6.9-1 1.5-1 .7 0 1.4.5 1.6 1.2.4 1.9 2 9.7 5.3 9.7l9.5.1c1.8 0 2.9-2.1 3.3-3.3.5-2.2.9-4.4 1.1-6.6v-.1c0-1.9-1.4-3.5-3.3-3.6l-12.7-.1h-.1l-9.5-.1-12.8-.1c-1.8.1-3.2 1.6-3.1 3.4 0-.2 0-.1.1 0zm23.9-.2c.4-.5 1-.8 1.6-.8l12.3.1c1 0 1.4.9 1.5 2.1-.2 1.8-.4 3.6-.8 5.4-.3 1-.7 2.4-2 2.3l-9-.1c-1.9 0-3.4-5.2-3.9-7.8-.1-.4 0-.9.3-1.2zm-22 1.1c0-1.1.5-2.1 1.5-2.1l12.3.1c.6 0 1.2.3 1.6.8.3.3.4.8.4 1.2-.3 2.6-1.4 7.7-3.3 7.7l-9-.1c-1.5-.1-1.9-1.6-2.3-2.6-.5-1.6-.9-3.2-1.2-5z"/><path class="prefix__st1" d="M484.1 55.8l7.9-5.3-.2 1.2-8.3 8.6.6-4.5z"/><path class="prefix__st2" d="M473.1 67.5l-17.6-.2s2.4 5.6 7.5 6.2c5.9.6 9.8-4.6 10.1-6z"/><path class="prefix__st14" d="M471.5 60.1c.4 1.3 1.7 2 3 1.7 1.2-.3 2-1.6 1.7-2.8 0-.1 0-.2-.1-.2v-.1c-1.2-.1-3.2-.3-4.5-.4-.3.5-.3 1.2-.1 1.8zM451.5 59.8c.3 1.3 1.6 2.1 2.9 1.8s2.1-1.6 1.8-2.9l-.1-.2c-1.4-.1-3.5-.3-4.5-.5-.2.6-.3 1.2-.1 1.8z"/><path class="prefix__st2" d="M453.1 74.4l-.2 1.6s-1.3-.2-3-.3l1-1.5c1.3.1 2.2.2 2.2.2zM446.5 73.9h.6l-.8 1.6c-1.1-.1-2.2.5-2.8 1.4l-.9-1.3c1-1.2 2.4-1.8 3.9-1.7zM439.4 82.2c.5-1.2 1-2.4 1.4-3.4L442 80c-.3.7-.6 1.5-1 2.4l-1.6-.2z"/><path class="prefix__st5" d="M441.5 77.5l.1-.2c.3-.6.7-1.3 1.1-1.8l.9 1.3-.6 1.2-.1.2c-.3.6-.6 1.2-.9 1.9l-1.2-1.2c.2-.5.5-1 .7-1.4zM451 74.2l-1 1.5c-1.1-.1-2.3-.2-3.4-.2h-.3l.7-1.6c1.4 0 2.9.1 4 .3zM445.2 84.4l-1.6 23.7c0 .5-3 .9-6.7.9s-6.7-.4-6.7-.9l-1.6-23.7h16.6z"/><path class="prefix__st2" d="M427.8 83.2h1.7c.4-.7 1.2-1.2 2-1.2h10.8c.8 0 1.6.4 2 1.2h1.7l.8 4.2c0 .4-4.4.7-9.9.7s-9.9-.3-9.9-.7l.8-4.2z"/><path class="prefix__st1" d="M434.8 139.8h.2c2.5-.1 4.8-1.2 6.4-3.1 1.6-1.7 2.9-3.6 3.9-5.7 2.3-4.8 4.1-9.8 5.4-15l.9-3.6-8-3.3c-.3 1-.5 2-.8 2.9-3.9 14.4-7 17.8-7.8 18.5-.8-.8-1.5-1.8-2-2.9-1.2-2.7-2.2-5.4-2.7-8.3-1.5-6.9-1.4-11.2.1-15.9.8-.3 1.7-.4 2.5-.4 1.4 0 2.8.2 4.2.4.4.1.7.1 1 .2l1-8.9c-.1 0-.3 0-.5-.1-2.3-.5-4.7-.6-7.1-.5-1.7.1-3.3.5-4.8 1.3-2 1-3.4 2.7-4.1 4.8-1.8 5.3-2.2 9.4-1.1 16.9 1 7 3.1 13.3 5.8 17.3 1.4 2.6 3.9 5.3 7.5 5.4z"/><path class="prefix__st1" d="M416.1 142.4v-8.7c.4 0 35.9 0 50.8-.3 2.7-.1 8.6-2 17.8-14.3l5.2-6.4 10.1-1.1c-2.5 4.4-5.2 8.6-8.1 12.6-8.7 11.7-17 17.8-24.7 17.9-15.2.3-50.7.3-51.1.3z"/><path class="prefix__st20" d="M443.6 140.6H477v1.6h-33.4z"/><path class="prefix__st20" d="M393.4 142.4h57.1l-9.9-41.7h-57.1l9.9 41.7z"/><path class="prefix__st2" d="M414.3 114.3l-1.3 4.8-4.6.8 4 3.6.1 5.2 3.8-2.6 4.6 2.4-1.7-5.2 2.8-3.8-4.8-.7-2.9-4.5zM33.3 142.1H477v6.4H33.3z"/><path class="prefix__st11" d="M199.2 194.8h6.7v27h-6.7z"/><path class="prefix__st3" d="M225.3 190.3c0 3.8-3.1 6.8-6.8 6.8h-32.2c-3.8 0-6.8-3.1-6.8-6.8 0-3.8 3-6.8 6.8-6.8h32.2c3.8 0 6.8 3.1 6.8 6.8zM197.3 216.9H208v25.6h-10.7z"/><path class="prefix__st11" d="M197.4 231.1l-33.2 7.4v4l33.2-4.3v-7.1zM200.4 231.1h4.3v11.4h-4.3z"/><path class="prefix__st3" d="M169.7 248.6c0 2.4-2 4.4-4.4 4.4s-4.4-2-4.4-4.4 2-4.4 4.4-4.4c2.4 0 4.4 1.9 4.4 4.4 0-.1 0-.1 0 0z"/><path class="prefix__st11" d="M207.9 231.1l33.2 7.4v4l-33.2-4.3v-7.1z"/><path class="prefix__st3" d="M235.7 248.6c0 2.4 2 4.4 4.4 4.4s4.4-2 4.4-4.4-2-4.4-4.4-4.4c-2.4 0-4.4 1.9-4.4 4.4zM207 248.6c0 2.4-2 4.4-4.4 4.4s-4.4-2-4.4-4.4 2-4.4 4.4-4.4c2.4 0 4.4 1.9 4.4 4.4zM198.3 196.3h8.4v2.2h-8.4z"/><path class="prefix__st13" d="M238.1 184.5c-.1 3.3-3 5.9-6.3 5.8h-59.7c-3.3.1-6.2-2.5-6.3-5.8 0-21.2 2.9-84.9 2.9-84.9 0-3.2 2.6-5.8 5.8-5.8h54.9c3.2 0 5.8 2.6 5.8 5.8 0 0 2.9 63.7 2.9 84.9z"/><path d="M238.1 184.5c-.1 3.3-3 5.9-6.3 5.8h-59.7c-3.3.1-6.2-2.5-6.3-5.8 0-21.2 2.9-84.9 2.9-84.9 0-3.2 2.6-5.8 5.8-5.8.2-1.3-12.1 69.2 4.6 85.1 8.3 7.9 37.6 8.8 45.9.9 16.5-15.7 4.4-85.9 4.4-85.9 3.2 0 5.8 2.6 5.8 5.8 0-.1 2.9 63.6 2.9 84.8z" opacity=".1" fill="#191818"/><path class="prefix__st8" d="M323.7 20.6c1.5-8.4 7.1-16.9 21-17.9H348.4c15.4 1.1 20.6 8.3 21.8 17.7 1.4 10.7 1.4 51.8 1.3 56.4-1.4 7.2-4.7 8-9.1 12.4-8.2 8.8-22 9.4-30.8 1.2l-.9-.9c-4.4-4.4-7.5-9.9-9-16 0-5.7 0-41.5 2-52.9z"/><path class="prefix__st0" d="M327.4 123.4v2.3c0 3.2-2 4.9-5 5.2h-22.2c-6.4 0-11.1 5.5-11.1 11.9l-2.6 56.9H297l2.6-56.9c0-.4.3-.8.7-.8h55.4c5.2.1 9.4-4 9.6-9.2v-9.4h-37.9z"/><path class="prefix__st0" d="M342.2 123.4v2.3c0 3.2-2.1 4.9-5.1 5.2h-18.4c-6.4 0-11.4 5.5-11.4 11.9v59.6H318v-59.6c0-.4.2-.8.6-.8h36.8c5.2.1 9.4-4 9.6-9.2v-9.4h-22.8z"/><path class="prefix__st2" d="M271.6 204.5h27.6v3.8h-27.6z"/><path class="prefix__st22" d="M285.8 185.4v-4.3c2 .3 3.4 1.9 3.4 3.9l8.3.3-.2 10.2 1.8 9h-27.5v-2c3.2-2.6 11.3-6.7 13.4-7.7l.8-9.4z"/><path class="prefix__st2" d="M290.2 190.7c0 1.3 1 2.3 2.3 2.3s2.3-1 2.3-2.3-1-2.3-2.3-2.3c-1.3 0-2.3 1-2.3 2.3zM292.5 204.5h27.6v3.8h-27.6z"/><path class="prefix__st22" d="M306.8 185.4v-4.3c1.9.3 3.4 1.9 3.4 3.9l8.3.3-.2 10.2 1.7 9h-27.5v-2c3.2-2.6 11.3-6.7 13.4-7.7l.9-9.4z"/><path class="prefix__st2" d="M311 190.7c0 1.3 1 2.3 2.3 2.3s2.3-1 2.3-2.3-1-2.3-2.3-2.3c-1.3 0-2.3 1-2.3 2.3z"/><path class="prefix__st1" d="M387 144.4s-4-2.9-8.1-1.8c-2.3.6-5.4 1-7.8-1.1-1.6-1.6-2.4-3.8-2.1-6l-2.5-51.8 7.5-.3 2.5 52.2.3-.1c7.7-2.2 14.4 2.8 14.7 3l-4.5 5.9zM304.8 104.6c-6.8 0-13.1-4.2-17.7-11.4-4.3-6.7-6.6-15.1-6.6-25h7.5c0 15.7 7.7 28.6 16.9 28.6 6.8 0 13.1-7.1 15.6-17.8l7.3 1.8c-1.3 6.2-4.2 11.9-8.3 16.7-4.3 4.7-9.3 7.1-14.7 7.1z"/><path class="prefix__st2" d="M365.1 86.9l11.3-4.1c-.9-11.1-12-24.2-29.5-24.2s-28.7 13.1-29.6 24.2l10 4.1v36.5h37.8V86.9z"/><path class="prefix__st1" d="M354 59.4c-.9-.2-1.8-.4-2.8-.5l-.6-6.6-7.1-.2-.3 6.8c-1.1.1-2.3.3-3.4.6v1c.2 4.3 3.5 7.7 7.4 7.5s6.9-3.9 6.8-8.2c-.1-.2 0-.4 0-.4z"/><path class="prefix__st1" d="M325.4 33.8c-.2 11.4 8.9 20.7 20.2 20.9 11.4.2 20.7-8.9 20.9-20.2l.1-7.7c.2-11.4-8.9-20.7-20.2-20.9-11.4-.2-20.7 8.9-20.9 20.2l-.1 7.7z"/><path class="prefix__st1" d="M361.7 34c0 3 2.4 5.6 5.4 5.6s5.6-2.4 5.6-5.4-2.4-5.6-5.4-5.6c-3-.1-5.5 2.3-5.6 5.4z"/><path class="prefix__st14" d="M351.2 34.9c.4 1.2 1.8 1.8 3 1.4 1.2-.4 1.8-1.8 1.4-3s-1.7-1.8-2.9-1.4c-1.3.4-1.9 1.7-1.5 3zM331.9 35.2c.4 1.2 1.8 1.8 3 1.4 1.2-.4 1.8-1.8 1.4-3s-1.7-1.8-2.9-1.4-1.9 1.8-1.5 3z"/><path class="prefix__st2" d="M351.1 42.5H336s2.4 4.6 6.1 5.2c5.1.7 8.8-4.1 9-5.2z"/><path class="prefix__st8" d="M355.2 20.5s7.5 16 8.9 33.6l3.2-.5s1.6-21.9-.5-33.1h-11.6z"/><path class="prefix__st15" d="M387.4 17.5c.1 1.4-.9 2.7-2.4 2.9h-19.5c-1.4-.2-2.5-1.4-2.4-2.9-.1-1.4.9-2.7 2.4-2.9H385c1.4.2 2.5 1.4 2.4 2.9z"/><path d="M370.2 20.5l-46.5.1c0-11.3 9.2-20.5 20.5-20.6h5.4c11.4 0 20.6 9.1 20.6 20.5 0-.1 0-.1 0 0z" fill="#4b4b4b"/><path class="prefix__st4" d="M345.3 17.3h-12.2c-.1-2.9 2.1-5.4 5.1-5.5h1.6c3.1 0 5.5 2.5 5.5 5.5z"/><path class="prefix__st3" d="M280.7 85c-.5.7-1.4.9-2.1.4-.7-.5-.9-1.4-.4-2.1l17-25.3c.5-.7 1.4-.9 2.1-.4.7.5.9 1.4.4 2.1l-17 25.3z"/><circle class="prefix__st1" cx="284.3" cy="71.5" r="6.2"/><path d="M81.5 142.2H152c1.2 0 2.4-.7 3-1.7H78.5c.6 1 1.8 1.7 3 1.7z" fill="#cfc8c5"/><path d="M78 138.7c0 .6.2 1.2.5 1.7H155c.3-.5.5-1.1.5-1.7H78z" opacity=".2" fill="#7d4895"/><path d="M122.2 138.7c-.3.4-.7.7-1.2.6h-8.3c-.5 0-.9-.2-1.2-.6H78c0 .6.2 1.2.5 1.7H155c.3-.5.5-1.1.5-1.7h-33.3z" fill="#d6cecb"/><path d="M112.6 139.4h8.3c.5 0 .9-.2 1.2-.6h-10.8c.4.3.8.6 1.3.6z" fill="#ada9a7"/><path class="prefix__st28" d="M90.6 126.1h72.6v7.6H90.6z"/><path class="prefix__st29" d="M94.7 133.7h10.1c-.2 1.1-.4 2-.6 2.9l-.5 2.2h-7.8l-.5-2.2c-.3-.9-.5-1.8-.7-2.9zm54.3 0h10.1c-.2 1.1-.4 2-.6 2.9l-.5 2.2h-7.8c-.1-.7-.3-1.4-.5-2.2s-.5-1.8-.7-2.9z"/><path class="prefix__st30" d="M90.6 71.6h72.6v54.5H90.6z"/><path class="prefix__st29" d="M90.6 77h72.6v2.1H90.6z"/><path class="prefix__st28" d="M100.5 76.1h17.6v17.3h-17.6z"/><path class="prefix__st29" d="M104.1 93.4h10.4c.8 0 1.4.6 1.4 1.4 0 .8-.6 1.4-1.3 1.4h-10.4c-.8 0-1.4-.6-1.4-1.4-.1-.8.5-1.4 1.3-1.4z"/><path class="prefix__st28" d="M105.7 96.2h7.1V107h-7.1z"/><path class="prefix__st29" d="M106.7 106.9h5.2v1.6h-5.2z"/><path class="prefix__st28" d="M108.2 108.6h2.2v2h-2.2z"/><path class="prefix__st9" d="M126.9 98.9h27.2v27.2h-27.2z"/><path class="prefix__st5" d="M117.8 98.9h9.1v27.2h-9.1z"/><path class="prefix__st9" d="M108.6 110.5h1.3v4.5h-1.3z"/><path d="M141 127.5c1.3 0 2.4 1.1 2.4 2.4s-1.1 2.4-2.4 2.4c-1.3 0-2.4-1.1-2.4-2.4 0-1.3 1.1-2.4 2.4-2.4z" fill="#aec827"/><path class="prefix__st18" d="M147.9 127.5c1.3 0 2.4 1.1 2.4 2.4 0 1.3-1.1 2.4-2.4 2.4-1.3 0-2.4-1.1-2.4-2.4s1.1-2.4 2.4-2.4zM154.8 127.5c1.3 0 2.4 1.1 2.4 2.4s-1.1 2.4-2.4 2.4c-1.3 0-2.4-1.1-2.4-2.4 0-1.3 1.1-2.4 2.4-2.4z"/><path class="prefix__st29" d="M108.2 78.1h2.2c1.5 0 2.6 1.2 2.6 2.6v8.1c0 1.4-1.2 2.6-2.6 2.6h-2.2c-1.4 0-2.6-1.2-2.6-2.6v-8.1c0-1.4 1.1-2.6 2.6-2.6z"/><g id="prefix__backlight"><circle cx="314.2" cy="62.5" r="18.7" opacity=".3" fill="#ff0"/><animate id="prefix__bulb-light" attributeName="opacity" attributeType="XML" values="1;0.5;1;0;0.8;0;" dur="0.8s" fill="freeze" begin="0s;prefix__bulb-light.end+3s"/></g><circle class="prefix__st33" cx="337.9" cy="95.9" r="9"/><circle class="prefix__st33" cx="290.5" cy="95.9" r="9"/><path class="prefix__st7" d="M335.7 86.9h2.2v18h-2.2zM290.5 86.9h2.2v18h-2.2z"/><path d="M312.9 53.9h2.7c2.8 0 5 2.2 5 5V75h-12.7V59c0-2.8 2.1-5 4.9-5.1h.1z" fill="#ef8c48"/><path class="prefix__st7" d="M305.8 69.9h17v5.9h-17z"/><path class="prefix__st5" d="M299.8 75h28.8c3.9 0 7.1 3.2 7.1 7.1v32.8h-43V82.1c0-3.9 3.2-7.1 7.1-7.1z"/><path class="prefix__st7" d="M338.4 124.1H290c-2.8 0-5.2-2.3-5.2-5.2 0-2.8 2.3-5.2 5.1-5.2h48.4c2.8 0 5.2 2.3 5.2 5.2.1 2.9-2.2 5.2-5.1 5.2z"/><path class="prefix__st18" d="M317.5 63.2c0 1.8-1.4 3.3-3.2 3.3S311 65 311 63.2s1.4-3.3 3.2-3.3c1.8 0 3.3 1.5 3.3 3.3z"/><circle class="prefix__st18" cx="314.2" cy="95.9" r="12.2"/><circle class="prefix__st2" cx="314.2" cy="95.9" r="9"/><path class="prefix__st18" d="M316.8 95.9c0 1.4-1.2 2.6-2.6 2.6s-2.6-1.2-2.6-2.6 1.2-2.6 2.6-2.6c1.4 0 2.6 1.2 2.6 2.6z"/><path class="prefix__st7" d="M292.7 110.7h43v3.1h-43zM305.8 73.3h17V75h-17z"/><path class="prefix__st8" d="M307.9 68.1h12.7v1.8h-12.7z"/><circle class="prefix__st15" cx="292.9" cy="128.4" r="4.4"/><circle class="prefix__st18" cx="292.9" cy="128.4" r="2.2"/><circle class="prefix__st15" cx="314.2" cy="128.4" r="4.4"/><path class="prefix__st18" d="M316.4 128.4c0 1.2-1 2.2-2.2 2.2s-2.2-1-2.2-2.2 1-2.2 2.2-2.2c1.2.1 2.2 1 2.2 2.2z"/><circle class="prefix__st15" cx="335.5" cy="128.4" r="4.4"/><circle class="prefix__st18" cx="335.5" cy="128.4" r="2.2"/><g opacity=".15"><path class="prefix__st2" d="M314.2 53.9c-3.5 0-6.3 2.8-6.4 6.3v9.7h-2.1V75h-9.3c-2 0-3.7 1.7-3.7 3.7v8.2h-2.2c-5 0-9 4-9 9s4 9 9 9h2.2v8.8H290c-2.8 0-5.2 2.3-5.2 5.2 0 2.8 2.3 5.2 5.2 5.2h24.2V53.9z"/><circle class="prefix__st2" cx="292.9" cy="128.4" r="4.4"/><path class="prefix__st2" d="M314.2 124.1c-2.4 0-4.4 2-4.4 4.4 0 2.4 2 4.4 4.4 4.4v-8.8z"/></g><path class="prefix__st5" d="M472.4 112.8c0 1.4-1.1 2.4-2.5 2.4s-2.5-1.1-2.4-2.5c0-1.4 1.1-2.4 2.5-2.4 1.3 0 2.4 1.1 2.4 2.5 0-.1 0-.1 0 0zM466.8 116.4l-.3-.2c-.3-.2-.5-.4-.8-.6-.1-.2-.3-.4-.4-.6s-.3-.4-.3-.7c-.1-.2-.2-.5-.2-.8s-.1-.6-.1-.8l.1-.8c0-.3.1-.5.2-.8.1-.2.2-.5.3-.7.1-.2.3-.4.4-.5.2-.3.5-.5.8-.6l.3-.2s0 .1-.1.4-.2.6-.3.8c0 .2-.1.4-.2.6s-.1.4-.1.6c-.1.4-.1.9-.1 1.3s.1.9.1 1.3c0 .2.1.4.1.6.1.2.1.3.2.5l.3.9c0 .2.1.3.1.3zM462.6 115.1l-.2-.1-.6-.3c-.3-.2-.5-.5-.6-.8-.1-.2-.1-.3-.2-.5l-.1-.6.1-.6c0-.2.1-.4.2-.5.1-.3.3-.6.6-.8.2-.2.4-.3.6-.4.1 0 .2-.1.2-.1v.3c0 .2-.1.3-.1.6s0 .3-.1.4 0 .3 0 .4v2.3c0 .1.1.5.1.6s.1.1.1.1zM473.1 109.1c.1.1.2.1.3.2.3.2.5.4.8.6.1.2.3.4.4.6s.3.5.3.7c.1.2.2.5.2.8s.1.6.1.8l-.1.9c0 .3-.1.5-.2.8-.1.2-.2.5-.3.7-.1.2-.3.4-.4.5-.2.3-.5.5-.8.6-.1.1-.2.1-.3.2s0-.1.1-.3c.1-.3.2-.6.3-.8 0-.2.1-.4.2-.6s.1-.4.1-.6c.1-.4.1-.9.1-1.3s-.1-.9-.1-1.3c0-.2-.1-.4-.1-.6-.1-.2-.1-.4-.1-.5-.1-.3-.2-.6-.4-.9-.1-.4-.1-.5-.1-.5zM477.3 110.4l.2.1.6.3c.3.2.5.5.6.8.1.2.1.3.2.5l.1.6-.1.6c0 .2-.1.4-.2.5-.1.3-.3.6-.6.8-.2.2-.4.3-.6.4l-.3.1v-.3c0-.2.1-.3.1-.6s0-.3.1-.4 0-.3 0-.4v-.8-.8-.4-.3c0-.1-.1-.5-.1-.7z"/><g id="prefix__lungs"><path class="prefix__st9" d="M457.2 99.1c.4 2.7 1 6.4 1 6.6s-2.9-2.1-4.6-3.4c-1.7 1-3.6 1.4-5.6 1.4-6.1 0-11-4.7-11-10.5.2-6 5.1-10.6 11.1-10.5 6.1 0 11.1 4.7 11.1 10.5-.1 2.1-.8 4.2-2 5.9z"/><path class="prefix__st5" d="M458.2 106.2c-.3 0-.5 0-4.6-3.4-1.7.9-3.6 1.4-5.5 1.3-6.4 0-11.5-4.9-11.5-11s5.2-11 11.5-11 11.5 4.9 11.5 11c0 2.1-.7 4.2-1.9 6l.1.6c.6 4 .9 5.7.9 5.9v.5l-.5.1zm-4.5-4.5l.3.2c2 1.6 3.1 2.5 3.7 2.9-.2-1.2-.5-3.2-.8-4.8l-.2-1 .1-.2c1.2-1.6 1.8-3.6 1.8-5.6 0-5.5-4.7-10-10.6-10s-10.6 4.5-10.6 10 4.8 10 10.6 10c1.9 0 3.7-.5 5.4-1.4l.3-.1z"/><path class="prefix__st5" d="M445.8 88.4c-1.4-.2-2.8.6-3.4 2-1.2 2.5-3.7 5.2-.6 7.3s3.1.3 4-2.5 1.8-5.6 0-6.8zM450.7 88.4c1.4-.2 2.8.6 3.4 2 1.2 2.5 3.7 5.2.6 7.3s-3.1.3-4-2.5-1.8-5.6 0-6.8z"/><path class="prefix__st30" d="M451.1 93.5c-.2.3-.3.7-.3 1.1l-1.7-1.7c-.5-.5-1.4-.5-1.9 0l-1.6 1.6c-.1-.2-.2-.6-.3-1v-.1l1.6-1.6c.4-.4.7-1 .7-1.7v-2.6h1v.1l.1-.1v2.7c0 .6.2 1.2.7 1.7l1.7 1.6z"/><path class="prefix__st5" d="M445.4 93.6l-.3-.3 1.7-1.7c.4-.4.6-.9.6-1.5v-2.7h.4v2.7c0 .7-.3 1.3-.8 1.8l-1.6 1.7zM451 93.6l-1.7-1.6c-.5-.5-.7-1.1-.8-1.8v-2.7h.4v2.7c0 .6.2 1.1.6 1.5l1.7 1.7-.2.2zM450.7 94.7L449 93c-.4-.4-1.2-.4-1.6 0l-1.7 1.7-.3-.3 1.7-1.7c.6-.6 1.6-.6 2.2 0l1.7 1.7-.3.3z"/><animateTransform id="prefix__lungs-translate" attributeName="transform" attributeType="XML" type="translate" values="0,10;-5,-5;" dur="5s" begin="0s;prefix__lungs-opacity.end+9s" repeatCount="indefinite" fill="freeze"/><animate id="prefix__lungs-opacity" attributeName="opacity" attributeType="XML" values="0;1;1;0" dur="5s" begin="0s;prefix__lungs-opacity.end+9s" fill="freeze" keyTimes="0;0.25;0.75;1"/></g><path class="prefix__st36" d="M447.6 88.1v1.4-1.4z"/><g id="prefix__heart"><path class="prefix__st9" d="M482.3 99.4c-.4 2.7-1 6.4-1 6.6s2.9-2.1 4.6-3.4c1.7 1 3.6 1.4 5.6 1.4 6.1 0 11.1-4.7 11.1-10.5s-5-10.5-11.1-10.5-11 4.7-11 10.5c0 2.1.6 4.1 1.8 5.9z"/><path class="prefix__st5" d="M481.3 106.5h-.5v-.5c0-.2.3-2 .9-6l.1-.4c-1.2-1.8-1.9-3.9-1.9-6 0-6 5.2-11 11.5-11s11.5 4.9 11.5 11-5.2 11-11.5 11c-1.9 0-3.8-.5-5.5-1.3-4.1 3.1-4.3 3.2-4.6 3.2zm10.2-23c-5.8 0-10.6 4.5-10.6 10 0 2 .6 4 1.8 5.6l.1.2-.1.8c-.3 1.6-.6 3.8-.8 5 .6-.4 1.7-1.3 3.7-2.9l.3-.2.3.2c1.6.9 3.5 1.4 5.4 1.4 5.8 0 10.6-4.5 10.6-10s-4.9-10.1-10.7-10.1z"/><path class="prefix__st3" d="M497.7 92.7c0 3-5.9 8-5.9 8s-5.9-5.1-5.9-8c0-1.8 1.4-3.2 3.2-3.3 1.1 0 2.1.5 2.7 1.4 1-1.5 3-1.9 4.5-.8.9.6 1.4 1.6 1.4 2.7z"/><path class="prefix__st2" d="M494.1 96.9c-.1 0-.3-.1-.3-.2l-1.1-3.6-1.2 3.6c0 .1-.2.2-.3.2-.1 0-.3-.1-.3-.2l-1.1-2.7-.6 1.2c-.1.1-.2.2-.3.2h-3.6c-.2 0-.3-.2-.4-.3 0-.2.2-.3.4-.3h3.4l.9-1.7c.1-.1.2-.2.3-.2.1 0 .2.1.3.2l1 2.5 1.3-3.7c.1-.1.2-.2.3-.2.1 0 .3.1.3.2l1.2 3.8.4-.8c.1-.1.2-.2.3-.2h3.7c.2 0 .3.2.3.3 0 .2-.2.3-.3.3H495l-.6 1.4c0 .2-.2.2-.3.2z"/><animateTransform id="prefix__heart-translate" attributeName="transform" attributeType="XML" type="translate" values="-12,12;5,5;" dur="5s" begin="0s;prefix__heart-opacity.end+4s" repeatCount="indefinite" fill="freeze"/><animate id="prefix__heart-opacity" attributeName="opacity" attributeType="XML" values="0;1;1;0" dur="5s" begin="0s;prefix__heart-opacity.end+4s" fill="freeze" keyTimes="0;0.25;0.75;1"/></g><g id="prefix__signal_x5F_black"><path class="prefix__st2" d="M148.3 65.2c-1.2 0-2.2-1-2.2-2.2 0-3-2.4-5.5-5.5-5.5-1.2 0-2.2-1-2.2-2.2s1-2.2 2.2-2.2c5.5 0 9.9 4.4 9.9 9.9 0 1.2-1 2.2-2.2 2.2z"><animate attributeName="opacity" attributeType="XML" values="0;1;0;" dur="1s" begin="0.1s" repeatCount="indefinite"/></path><path class="prefix__st2" d="M156 65.2c-1.2 0-2.2-1-2.2-2.2 0-7.2-5.9-13.1-13.1-13.1-1.2 0-2.2-1-2.2-2.2s1-2.2 2.2-2.2c9.7 0 17.5 7.9 17.5 17.6 0 1.1-1 2-2.2 2.1z"><animate attributeName="opacity" attributeType="XML" values="0;1;0;" dur="1s" begin="0.2s" repeatCount="indefinite"/></path><path class="prefix__st2" d="M164.2 65.2c-1.2 0-2.2-1-2.2-2.2 0-11.8-9.6-21.4-21.4-21.4-1.2 0-2.2-1-2.2-2.2s1-2.2 2.2-2.2c14.3 0 25.8 11.5 25.8 25.8 0 1.2-1 2.2-2.2 2.2z"><animate attributeName="opacity" attributeType="XML" values="0;1;0;" dur="1s" begin="0.3s" repeatCount="indefinite"/></path></g></svg>