<svg version="1.1" id="prefix__prefix__Layer_1" xmlns="http://www.w3.org/2000/svg" x="0" y="0" width="764" height="auto" viewBox="0 0 800 562.6" xml:space="preserve"><style>.prefix__prefix__st1{fill:#f0f0f0}.prefix__prefix__st2{fill:#f8f8f8}.prefix__prefix__st5{fill:#cbcbcb}.prefix__prefix__st6{fill:#a5a5a5}.prefix__prefix__st7{fill:#3f3f3f}.prefix__prefix__st8{fill:#525252}.prefix__prefix__st13{fill:#303030}.prefix__prefix__st14{fill:#e8efff}.prefix__prefix__st15{fill:#00c853}.prefix__prefix__st16{fill:#2f2f2f}.prefix__prefix__st17{fill:#00e676}.prefix__prefix__st19{fill:#b9f6ca}.prefix__prefix__st20{fill:#69f0ae}</style><g id="prefix__prefix__Layer_2_1_"><g id="prefix__prefix__Layer_6"><path class="prefix__prefix__st1" d="M424.8 522.8l203.6-118.1c11-6.4 14.7-20.4 8.3-31.4-2-3.5-4.9-6.4-8.4-8.4L424.4 247.1c-10.7-6.2-23.9-6.2-34.6 0L186.5 364.9c-11 6.4-14.7 20.4-8.4 31.4 2 3.5 4.9 6.3 8.3 8.3L390 522.8c10.8 6.3 24 6.3 34.8 0z"/><path class="prefix__prefix__st2" d="M424.8 519.9l203.6-118.1c11-6.4 14.7-20.4 8.3-31.4-2-3.5-4.9-6.4-8.4-8.4L424.4 244.2c-10.7-6.2-23.9-6.2-34.6 0L186.5 362c-11 6.4-14.7 20.4-8.4 31.4 2 3.5 4.9 6.3 8.3 8.3L390 519.9c10.8 6.2 24 6.2 34.8 0z"/><g id="prefix__prefix__tiles1"><path class="prefix__prefix__st1" d="M671.6 365.1l59.8-34.7c3.2-1.9 4.3-6 2.4-9.2-.6-1-1.4-1.9-2.5-2.5l-59.9-34.6c-3.1-1.8-7-1.8-10.2 0l-59.7 34.6c-3.2 1.9-4.3 6-2.5 9.2.6 1 1.4 1.9 2.5 2.5l59.8 34.7c3.2 1.8 7.1 1.8 10.3 0z"/><path class="prefix__prefix__st2" d="M671.6 361.9l59.8-34.7c3.2-1.9 4.3-6 2.4-9.2-.6-1-1.4-1.9-2.5-2.5l-59.9-34.6c-3.1-1.8-7-1.8-10.2 0l-59.7 34.6c-3.2 1.9-4.3 6-2.5 9.2.6 1 1.4 1.9 2.5 2.5l59.8 34.7c3.2 1.8 7.1 1.8 10.3 0z"/><animateTransform attributeName="transform" attributeType="XML" type="translate" values="23,-17;0,0;23,-17" dur="3s" repeatCount="indefinite" fill="freeze"/><animate attributeName="opacity" attributeType="XML" values="0;1;1;1;0;0" dur="3s" repeatCount="indefinite" fill="freeze"/></g><g id="prefix__prefix__tiles2"><path class="prefix__prefix__st1" d="M156.3 487.3l59.8-34.7c3.2-1.9 4.3-6 2.4-9.2-.6-1-1.4-1.9-2.5-2.5l-59.9-34.6c-3.1-1.8-7-1.8-10.2 0L86.3 441c-3.2 1.9-4.3 6-2.5 9.2.6 1 1.4 1.9 2.5 2.5l59.8 34.7c3.1 1.8 7 1.8 10.2-.1z"/><path class="prefix__prefix__st2" d="M156.3 484.1l59.8-34.7c3.2-1.9 4.3-6 2.4-9.2-.6-1-1.4-1.9-2.5-2.5l-59.9-34.6c-3.1-1.8-7-1.8-10.2 0l-59.7 34.6c-3.2 1.9-4.3 6-2.5 9.2.6 1 1.4 1.9 2.5 2.5l59.8 34.7c3.2 1.9 7.1 1.9 10.3 0z"/><animateTransform attributeName="transform" attributeType="XML" type="translate" values="-27,16;0,0;-27,16" dur="3s" repeatCount="indefinite" fill="freeze"/><animate attributeName="opacity" attributeType="XML" values="0;1;1;1;0;0" dur="3s" repeatCount="indefinite" fill="freeze"/></g><path d="M330.1 309.2v-.1h-.1l.1.1z" fill="#b6caf2"/></g></g><ellipse class="prefix__prefix__st1" cx="462.4" cy="348.7" rx="73.9" ry="33.1" id="prefix__prefix__shadow2"><animateTransform attributeName="transform" attributeType="XML" type="translate" values="0,9;-10,-4;0,9" dur="8s" repeatCount="indefinite"/></ellipse><ellipse class="prefix__prefix__st1" cx="322.5" cy="425.1" rx="73.9" ry="33.1" id="prefix__prefix__shadow1"><animateTransform attributeName="transform" attributeType="XML" type="translate" values="-10,-10;19,5;-10,-10" dur="8s" repeatCount="indefinite"/></ellipse><path d="M309.8 173.3l1.9.6s.5 4.1.4 4c-.1-.1-2.3-4.6-2.3-4.6z" fill="#ebf4ff"/><path class="prefix__prefix__st5" d="M312.3 178.6l-.8-2.5-.5-15.3 22.4 6.2c-1.1 3.8-1.8 7.8-2.1 11.8.1 1.9.2 3.8.5 5.7l-19.5-5.9z"/><path class="prefix__prefix__st5" d="M311.4 161.3l21.6 6c-1.1 3.8-1.8 7.6-2.1 11.6.1 2.2.3 4 .4 5.1l-18.7-5.6-.7-2.2-.5-14.9m-.8-1l.6 15.9.8 2.7 20.2 6.1c-.3-2.1-.5-4.1-.6-6.2.3-4.1 1.1-8.1 2.2-12.1l-23.2-6.4z"/><path class="prefix__prefix__st6" d="M317 162.4c1.8 2.1 1.5 5.2-.6 7l-.3.3c5.1 2.3 10.4 4.1 15.8 5.5.6-3.9 1.9-8.4 1.9-8.4l-17-4.7c.1 0 .2.1.2.3z"/><path class="prefix__prefix__st5" d="M316.2 167.3s18.9 8.4 23.5 5.5c3.6-2.3 4.3-16.5 3.3-22.5-.6-5.5-.8-11.1-.6-16.7 0 0-18.8.4-23.9 6.3-4.5 5.8-5.1 13.8-1.4 20.1 1.8 2.1 1.5 5.2-.6 7-.1.2-.2.2-.3.3zm-30 103.1l7 12.9s8.4-11 8.3-11-10.1-3.4-10.1-3.4l-5.2 1.5z"/><path class="prefix__prefix__st5" d="M293.2 284l-.3-.5-7.2-13.3 5.8-1.7h.1c3.8 1.3 9.7 3.3 10 3.4h.2v.2c.1.3.2.3-8.3 11.4l-.3.5zm-6.4-13.4l6.5 12c2.8-3.7 6.7-8.7 7.7-10.1-.9-.3-3.2-1.1-9.5-3.3l-4.7 1.4zm103.7-52.3c9.2-4.8 25.9-13.5 26.5-13.8.2-.1.4-.1.6-.1.4 0 .9.2 1.2.5.4.6.5 1.3.3 1.9-.1.4-.5.8-.9.9-2.8 1.2-5.5 2.6-8.1 4.2l-.7.4.8.3c.6.3 1 .7 1.2 1.3 1 2.4 1.7 5 2.1 7.6-.1.6-3.7 1.7-5.6 2.3-1.2.4-2.4.7-3.2 1-1.9.8-3.8 1.7-5.6 2.8l-8.6-9.3z"/><path class="prefix__prefix__st5" d="M417.7 204.8c.3 0 .7.1.9.3.3.5.3 1 .2 1.6-.1.3-.3.6-.6.7-2.8 1.2-5.5 2.6-8.2 4.2l-1.3.8 1.5.6c.5.2.8.6 1 1.1 1 2.4 1.7 4.8 2.1 7.3-1.7.9-3.5 1.6-5.4 2-1.2.4-2.4.7-3.3 1-1.9.8-3.7 1.7-5.4 2.7l-8-8.7c10.4-5.5 25.4-13.2 26-13.5.1-.1.3-.1.5-.1m0-.8c-.2 0-.5 0-.7.1-.5.2-27 14-27 14l9.1 9.8c1.9-1.1 3.8-2.1 5.8-2.9 2.6-1 9-2.3 9.1-3.6-.4-2.7-1.1-5.3-2.2-7.8-.3-.7-.8-1.2-1.5-1.5 2.6-1.5 5.3-2.9 8-4.1 1.6-.5 1.4-2.7.8-3.4-.4-.4-.9-.6-1.4-.6z"/><path class="prefix__prefix__st7" d="M306.5 407.3s15.5-4.4 18.8-2.8c3.3 1.7.8 8.1-6.4 12.2s-11.1 6.7-14.9 7.7-9.8 1.1-10.7-2.7c-.8-3.3-.6-6.8.6-10 .9-1.7 12.6-4.4 12.6-4.4zm34.3 14.8s17.4-5 21.1-3.1.9 9.1-7.2 13.7-12.5 7.5-16.7 8.6c-4.3 1.1-11 1.2-12-3-.9-3.7-.7-7.6.6-11.2 1.1-1.9 14.2-5 14.2-5z"/><path class="prefix__prefix__st8" d="M335.2 431.2c-2.8 0-5.6-.8-8.1-2.2.1-4.2 1.9-65 1.9-68.4 0-3-6.8-52.4-8-55-.3-.9-1.2-1.5-2.2-1.6-.6 0-1.1.2-1.6.5l-.2.1v.2c0 .4 1 42.9 0 48.6-.5 3.2-2.3 18.5-3.9 32.1-1.2 10.6-2.4 20.6-2.6 21.6-.8 3.2-3.6 5.6-6.9 5.7-.8.1-1.6.1-2.4.1-2 0-4-.3-5.9-.9.2-4.8 2.4-55.8 2.4-58.5 0-2.4-1.2-35.7-2.4-40.3-1.8-9.4-2.9-18.9-3.2-28.5.2-4.8.6-9.6 1.3-14.4l55.3 5.5c.3 5.2 3.8 71.6 2.7 83.4-1.2 12.3-7.9 64.4-8 64.9 0 0-1.1 6.2-6.5 6.8-.6.3-1.1.3-1.7.3z"/><path class="prefix__prefix__st8" d="M293.7 270.9l54.7 5.4c.4 7.1 3.7 71.4 2.6 83-1.2 12.3-7.9 64.4-8 64.8 0 .1-1.1 5.9-6.1 6.5-.5.1-1.1.1-1.6.1-2.7 0-5.4-.7-7.7-2 .2-6.2 1.9-64.8 1.9-68.2 0-3.9-6.8-52.6-8.1-55.2-.4-1-1.4-1.7-2.5-1.8-.7 0-1.3.2-1.8.6l-.3.2v.4c0 .4 1 42.8 0 48.6-.5 3.2-2.3 18.5-3.9 32-1.2 10.6-2.4 20.6-2.6 21.6-.7 3.1-3.4 5.3-6.6 5.4-.8.1-1.5.1-2.3.1-1.9 0-3.7-.3-5.5-.8.3-6.2 2.3-55.6 2.3-58.3 0-2.4-1.2-35.8-2.4-40.4-1.8-9.4-2.9-18.8-3.2-28.4 0-4.3.4-8.9 1.1-13.6m-.7-.8c-.7 4.9-1.2 9.8-1.3 14.8.3 9.6 1.4 19.1 3.2 28.6 1.2 4.4 2.4 37.3 2.4 40.2 0 2.8-2.4 58.8-2.4 58.8 2 .6 4.1 1 6.3 1 .8 0 1.6 0 2.4-.1 3.5-.2 6.4-2.6 7.3-6 .4-2.2 5.6-47.8 6.5-53.6 1-5.8 0-48.7 0-48.7.4-.3.9-.4 1.4-.5.8 0 1.6.6 1.8 1.3 1.2 2.4 8 51.3 8 54.8 0 3.6-1.9 68.6-1.9 68.6 2.6 1.5 5.5 2.3 8.5 2.3.6 0 1.1 0 1.7-.1 5.7-.7 6.8-7.1 6.8-7.1s6.8-52.5 8-64.9-2.7-83.8-2.7-83.8l-56-5.6z"/><g opacity=".23"><path class="prefix__prefix__st7" d="M308.8 305.8c-.4-1.1-1.6-1.6-2.7-1.2-.2.1-.4.2-.5.3 0 0 1 42.8 0 48.7-1 5.8-6.1 51.4-6.5 53.6-.5 2.3-2 4.2-4.2 5.1v.1c2.8.9 5.8 1.2 8.7.8 3.5-.2 6.4-2.6 7.3-6 .4-1.9 4.1-35.3 5.8-48.7-1.1-10.1-6.8-50.5-7.9-52.7z"/><path class="prefix__prefix__st7" d="M349 275.7l-56-5.6s-.1.4-.2 1.2l44.4 4.4s3.9 71.3 2.7 83.8c-1.2 12.4-8 64.9-8 64.9-.5 2.3-1.7 4.3-3.4 5.8 2.6 1.2 5.5 1.6 8.4 1.3 5.7-.7 6.8-7.1 6.8-7.1s6.8-52.5 8-64.9c1.2-12.5-2.7-83.8-2.7-83.8z"/></g><path d="M293.8 176.5c4.9-1.4 9.4-.3 14.4.5 11.3 1.8 36.9 6.1 41.8 8.3 6.2 3 10.1 8.3 12.2 20.2s5 23.1 5 23.1l26.1-12.8c2.7.9 4.9 2.8 6.2 5.4 1.2 2.3 1.2 5.1 0 7.4 0 0-30.8 20.2-34.7 20.4-3.9.3-11.3-7.1-14.5-20.2l-3.3-13s2.2 2.1 2.2 11.9-.8 15.3.1 22.4c.9 7.1 2.7 17.6 2 22.4-.7 4.9-3 10.8-7.8 11.8-12.8 2.4-26 1-38-4.2-8.9-3.3-13.1-8-12.4-10 2.3-7 3.4-14.4 3.1-21.7-.4-3.7-3.5-17.5-3.2-23l.3-5.6s-3.8 15.6-3.1 20.9c.7 5.3 6.9 28.3 6.9 28.3-1.9 1.7-4.4 2.7-7 2.9-1.7.1-3.3-.5-4.6-1.6 0 0-7.3-22.5-8.9-25.7-1.6-3.1 7.8-58.9 10.4-63.3 1.7-2.2 4.1-3.9 6.8-4.8z" fill="#fafafa"/><path class="prefix__prefix__st1" d="M399.4 221.1c-1.3-2.5-3.5-4.4-6.2-5.4l-26.1 12.8s-3-11.3-5-23.1c-2.1-11.9-5.9-17.2-12.2-20.2-4.8-2.3-30.4-6.5-41.8-8.3-4.5-1.2-9.3-1.4-13.9-.6 1.2.2 2.3.4 3.5.6 11.3 1.8 36.9 6.1 41.8 8.3 3.5 1.7 2.1 11.1.3 19.1-1.4 6.1-1.8 12.3-1.2 18.5.1 1.4.2 3 .2 4.8 0 9.8-.8 15.3.1 22.4s2.7 17.6 2 22.4c-.7 4.9-3 10.8-7.8 11.8-2.3.5-4.5.8-6.8 1 5.8.5 11.6.2 17.2-1 4.8-1 7.1-6.9 7.8-11.8.7-4.9-1.1-15.3-2-22.4s-.1-12.7-.1-22.4c0-1.2 0-2.4-.1-3.4.3 1.3.7 2.8 1.1 4.5 3.3 13 10.7 20.4 14.5 20.2 3.9-.3 34.7-20.4 34.7-20.4 1.3-2.3 1.3-5 0-7.4z"/><path class="prefix__prefix__st1" d="M309 178.8v-4.9c0-.5.8-.9 1-.5.6 1.7 2 3 3.7 3.5 4.7 1.4 7.9-.8 11.5-1.2 2-.4 4.1-.4 6.1 0 1.9.4 3.5 1.4 4.9 2.7.7.9 1.3 1.9 1.8 3 .1.3 0 .7-.3.8-.1.1-.3.1-.4 0-2.1-.6-6.7-1.7-7.3-1.7-2.7.3-5.3 1-7.9 1.9-2.7 1-5.7 1-8.4.3-2.1-.3-3.9-1.8-4.5-3.8-.2 0-.2 0-.2-.1z"/><path d="M338.7 425l-.7-.1c.1-.6 5.4-61 6.1-73s-4-60.8-4-61.3l.7-.1c0 .5 4.7 49.4 4 61.4s-6 72.5-6.1 73.1zm-32.4-20.8l-.7-.1c.2-1.7 4-41.3 5.3-47.3.5-7.6.6-15.3 0-22.9-.5-7-.5-13.9 0-20.9 1.1-6.1 3-7.5 3-7.6l.4.6-.2-.3.2.3s-1.7 1.4-2.7 7.1c-.4 6.9-.4 13.8.1 20.7.5 7.7.5 15.4-.1 23.1-1.3 6-5.3 46.8-5.3 47.3z" fill="#414141"/><path class="prefix__prefix__st13" d="M326.3 162.2c.2 2.5 0 5.1-.5 7.6-2.4 5.3-12.3 4.5-17.2 1-5-3.7-1.3-7.6-6.2-25.4-1.6-4-1.5-8.5.1-12.5.6-1.2 1.5-2.3 2.5-3.2 5.9-5.9 14.7-6.7 18.8-7 0 0 11.1-.9 18 3.3 1.1.7 3.6 2.3 3.6 4.4.1 1.1.1 2.1 0 3.2-1 3.2-1.8 3.6-6.8 4.4-5 .8-6.7 2.6-7.3 6-.3 1.8-.2 3.6.1 5.4.1.3-.2.6-.5.7-.2 0-.4 0-.5-.1-.8-.7-1.7-1.2-2.7-1.3-2.4.1-4.1 1.2-3.5 4.1.5 1.8 1.7 3.4 3.2 4.4-.1.8-.4 1.6-.7 2.3-.2.8-.4 1.8-.4 2.7z"/><path class="prefix__prefix__st14" d="M293.1 271.4l2.2-15.3-.3 2.7c-1.9-9.6-4.5-14.7-4.9-18-.7-5.3 3.1-20.9 3.1-20.9-4.2 3.6-7.1 8.4-8.3 13.7-1.4 8 4.9 18.1 5.1 24.4.2 6.3.1 14 .1 14 1 0 2-.2 3-.6z"/><path class="prefix__prefix__st14" d="M293.1 229.2l.1-9.4-.3 5.6c0 1.2.1 2.5.2 3.8z"/><path class="prefix__prefix__st15" d="M351.4 269.1c0 .3-.1.6-.1.9-.7 4.9-3 10.8-7.8 11.8-12.8 2.4-26 1-38-4.2-7.4-2.8-11.5-6.4-12.4-8.8l-.5 3.9c.2-.1.4-.1.6-.2.8 2.3 5 6 12.4 8.8 12 5.2 25.2 6.7 38 4.2 4.8-1 7.1-6.9 7.8-11.8 0-1.5.1-3.1 0-4.6z"/><g><path class="prefix__prefix__st7" d="M437.1 326.2s-4.4 7.2-9.3 9.1-7.8 3.1-8.6 4.8c-.8 1.7-.7 3.3 2.3 3.8 3.5.7 7.2.4 10.6-.7 3.1-1.3 9.9-6.6 10.9-7 .7-.3 1.4-.4 2.1-.4v1.4c3.3.2 6.6 0 9.9-.7 1.6-.9 2.4-1.3 2.4-1.3.2-2.5-.2-4.9-1.1-7.2-1.5-2.2-2-2.2-2-2.2l-17.2.4z"/><path class="prefix__prefix__st16" d="M457.3 332.7s-.8.4-2.4 1.3c-3.2.6-6.6.9-9.9.7-.7 0-1.5.2-2.1.4-1 .4-7.8 5.7-10.9 7-3.4 1.1-7 1.4-10.6.7-1.7-.3-2.4-.9-2.7-1.7-.3 1.3.2 2.4 2.7 2.8 3.5.7 7.2.4 10.6-.7 3.1-1.3 9.9-6.6 10.9-7 .7-.3 1.4-.4 2.1-.4v1.4c3.3.2 6.6 0 9.9-.7 1.6-.9 2.4-1.3 2.4-1.3.1-.8.1-1.7 0-2.5z"/><path class="prefix__prefix__st8" d="M429.3 192.4s.9 50.6 1.5 66 5.6 68.9 5.6 68.9c3.5 1.3 7.2 1.7 10.8 1.3 6.4-.7 6.9-2.8 6.9-2.8s.8-51.1-1.5-57.2 10-43 11.3-50.9-1.3-22.6-1.3-22.6l-33.3-2.7z"/><path class="prefix__prefix__st7" d="M462.7 195.1l-33.3-2.7v.5l27 2.2s-3.1 13.6-4.4 21.5-7.9 45.9-5.6 52 1.5 57.2 1.5 57.2-.5 2-6.4 2.7c1.9.2 3.8.3 5.7.1 6.4-.7 6.9-2.8 6.9-2.8s.8-51.1-1.5-57.2 10-43 11.3-50.9-1.2-22.6-1.2-22.6zm.5 150.7s-6.5 17.9-5.5 21.4 3 6.7 9.5 2.8 7.7-5.4 8-7.8-.8-10.6 1.3-15.3c1.8-3.6 2.7-7.6 2.6-11.7-.3-2.3-15.9 10.6-15.9 10.6z"/><path class="prefix__prefix__st16" d="M479.1 335.8c0-.3-.3-.3-.7-.3-.2 3.7-1.1 7.4-2.7 10.8-2.1 4.7-1 12.9-1.3 15.3s-1.4 3.9-8 7.8c-4.3 2.5-6.7 2-8 .3 1.2 2.5 3.5 3.9 8.8.8 6.6-3.8 7.7-5.4 8-7.8s-.8-10.6 1.3-15.3c1.8-3.5 2.7-7.5 2.6-11.6z"/><path class="prefix__prefix__st8" d="M453.7 199.2l29.8-6.9s.8 8.5.8 20.8c-.3 14.9-2.6 29.8-6.9 44.1-2.8 7.3-4.3 15-4.4 22.7.4 2 4.7 22.3 4.5 33.4-.2 11.2 2.4 25.7 1.7 26.6-.7.9-5 7.7-10.3 7.4s-5.9-1.5-5.9-1.5-6-76-7.3-82.2c-1-4.8.1-11.5-2-19.8-4.3-18.3 0-44.6 0-44.6z"/><path class="prefix__prefix__st17" d="M440.6 93.4c-4.9-.5-9.7 1.3-13.1 4.9-4.3 4.7-3.4 19.3-3.1 23.4 1.3 8.7 3.1 17.3 5.4 25.7"/><path class="prefix__prefix__st5" d="M441.5 146.9c-5.5 2.9-10.7 6.2-15.7 9.8-8.4 6.1-13.6 10.9-17.6 10.7s-5.9-2.8-10.7.9c-4.8 3.7-6.1 4-6.2 4.9s0 2.8 2.5 1.5 2.6-1 2.7-.6-1.6.9-3.9 4.3c-2.2 3.4-3.5 7-1.4 8.1s8.7-.1 16.9-7c6.6-5.5 14.2-9.8 22.4-12.7 4.5-1.4 8.8-3.6 12.6-6.4 2-1.7-1.6-13.5-1.6-13.5z"/><path class="prefix__prefix__st17" d="M406.6 166.7l5.5 10.1c.3.5.9.7 1.4.4l17-8.9v-18.8L407 165.4c-.5.3-.6.9-.4 1.3z"/><path class="prefix__prefix__st15" d="M420 173l-6.4-11.7c-.1-.1-.1-.2-.1-.3l-6.6 4.4c-.4.3-.6.9-.3 1.3l5.5 10.1c.3.5.9.7 1.4.4l7.1-3.7c-.2-.1-.5-.3-.6-.5z"/><path d="M483.5 192.4c0 6.7-12.1 12.1-27.1 12.1s-27.1-5.4-27.1-12.1c-.1-1.5-.1-2.9 0-4.4 2.3-5.7 13.8-7.7 27.1-7.7 15-.1 27.1 5.4 27.1 12.1z" fill="#192535"/><path class="prefix__prefix__st19" d="M429.3 129.6v-22.1c0-4.8 3.5-8.8 8.3-9.5 20.5-2.8 40.9 5.7 53.4 22.2l.2.2c6.8 9.1 6.4 21.8-1.2 30.4-8.8 10.1-9.2 25.1-6.2 38.1-.1 6.3-8.4 7.8-14.5 9.4-16.2 4.5-31.2 1-39.3-8.7l-.7-1.7v-58.3z"/><path class="prefix__prefix__st20" d="M491.2 120.4l-.2-.2c-11.8-15.5-30.6-24-50.1-22.5 16.4 1.2 31.4 9.5 41.3 22.5l.2.2c6.8 9.1 6.4 21.8-1.2 30.4-8.8 10.1-9.2 25.1-6.2 38.1-.1 6.3-8.4 7.8-14.5 9.4-3 .8-6.1 1.4-9.2 1.7 6 .5 12.1 0 17.9-1.7 6-1.7 14.3-3.2 14.5-9.4-3-13-2.6-28.1 6.2-38.1 7.6-8.6 8.1-21.2 1.3-30.4z"/><path class="prefix__prefix__st20" d="M437.6 93.5c12.5-1.7 11.3 4.7 14.2 4.7l-4.9 23.4-.7 77.6c-6.6-1.6-13-4.3-16.2-9.6-.3-.5-.5-1.1-.7-1.7v-85c0-4.7 3.6-8.8 8.3-9.4z"/><ellipse class="prefix__prefix__st17" cx="484.5" cy="135.1" rx="11.8" ry="16.1"/><path class="prefix__prefix__st17" d="M500 174.4c.2-6.5-.2-12.9-1.1-19.3-1.5-11.2-3-23.4-3-23.4l-22.6 9c.6 5.9 1.7 11.7 3.3 17.4 2.1 5.3 3.8 10.8 5 16.4.4 2.5.5 30.5.5 36.4 0 .6.4 1.1 1 1.2l8.2 1.1c.6.1 1.2-.3 1.3-1l6.5-33.8.9-4z"/><path class="prefix__prefix__st5" d="M449.1 95.4v5.7c-.2 3-.6 5.9-1.3 8.8-.8 2.7-1.3 5.5-1.5 8.3-.2 1.2.1 2.3.6 3.4 1.9-3 4.6-5.4 7.7-7 5.2-2.7 12-6.7 13.5-9.6 1-2.4 1.7-4.9 2-7.4V82.8l-21 12.6z"/><path class="prefix__prefix__st6" d="M470.1 82.8l-21 12.6v2.3c3.1-.3 6.2.2 9.1 1.2 4 2.1 7 5.8 8 10.2 0 0 4.2-14 3.8-21.4v-4.9h.1z"/><path class="prefix__prefix__st20" d="M469.6 93.4v3.2s-1.6 9.1-6 12.1-11.6 6.2-13.5 8.2c-1.3 1.4-2.3 3-3.1 4.8 2.1-2.7 4.7-4.9 7.7-6.4 4-1.5 6.4-4 8.8-.8 1.5 2 2.8 4.1 3.9 6.3 1.6-1.9 3-4 4-6.3 2-4 1.4-13.5 1.5-14-1-2.5-2.1-4.8-3.3-7.1z"/><path class="prefix__prefix__st19" d="M449.1 98.2c-3 3.2-5.7 6.7-8.1 10.3-1 1.6-1.7 3.4-2.1 5.2 0 0-.1 1.2.6.8.6-.4 1.2-3.7 1.9-4.6.8-.9 2.1-.9 2.9-.2.4.3.6.8.7 1.3.1 3.1.5 6.1 1.1 9.1l.9 1.5c-.5-2.6-.3-5.2.5-7.7.7-2.1 1.3-2.1 2.1-4.6.9-2.5 1.2-5.2.7-7.8-.3-1.2-.7-2.3-1.2-3.3z"/><path class="prefix__prefix__st5" d="M440.4 58.9c-1.8 8.6-1.8 17.4 0 26 .8 2.8 1.8 5.5 3 8.1 1 2.7 4 4.2 6.7 3.2.7-.2 1.5-.5 2.4-.9 4.4-1.6 8.4-4.1 12-7.1 0 0 13.9-13.7 8.7-20.4-5.2-6.5-32.8-8.9-32.8-8.9z"/><path class="prefix__prefix__st13" d="M463.9 67.2c.4-1-.1-2.1-1.1-2.5-.2-.1-.4-.1-.7-.1-5.3-.1-16.6-.6-22.3-3.8-7.7-4.3 1.4-9.3 1.4-9.3s15.2-5.3 23.5-3.8c8.3 1.4 15 8.9 15 15.9s-6.3 24.2-9.7 28.3c-3.4 4.1-7.3-.6-4.7-3.6 2.6-3 4.8-8.4 3.6-10.4-1.2-2-2.6-2.6-4.4-.1-1.1 1.4-1.9 3-2.4 4.7 0 0-2-1-1-6.1.6-3.3 1.6-6.3 2.8-9.2z"/><path class="prefix__prefix__st5" d="M484.1 207.6c-1.6 4.8-2.8 9.7-3.6 14.6 0 3.3 2.2 1.8 2.6.4.4-1.5.9-4.3.9-4.3 1.1 1.6 1.5 3.6 1.1 5.5-.3 2.1-.6 5.4-2 5.8-1.4.5-.9 1.6-.9 1.6.3.4.8.5 1.3.4.2 0 .4-.1.5-.2 1.9-1.2 3.3-3 4.1-5.1 1.5-3.2 2.5-6.6 3.1-10.1.4-2.8.6-5.7.5-8.5l-7.6-.1z"/><path class="prefix__prefix__st15" d="M482.2 203.7v7c0 .6.4 1.1 1 1.2l8.2 1.1c.6.1 1.2-.3 1.3-1l1.3-6.7-11.8-1.6z"/></g></svg>