<svg version="1.1" id="prefix__Layer_1" xmlns="http://www.w3.org/2000/svg" x="0" y="0" width="467" height= "auto"  viewBox="0 0 393.9 343.9" xml:space="preserve"><style>.prefix__st0{fill:#f1f1f1}.prefix__st2{fill:#3f3f3f}.prefix__st3{fill:#303030}.prefix__st4{fill:#00c853}.prefix__st5{fill:#cbcbcb}.prefix__st6{fill:#f3f3f3}</style><path class="prefix__st0" d="M189 316.1h36v27h-36z"/><circle cx="200.5" cy="171.9" r="166.9" fill="#f8f8f8"/><path class="prefix__st2" d="M91.9 314c-.4 0-.9-.3-1.3-.2-.1.3-.3.6-.6.7l2-.3c0-.1-.1-.1-.1-.2zM299.7 279.6zM381.6 268.3zM74.2 315.1H73.9h.3z"/><g id="prefix__hair"><path id="prefix___Path_" class="prefix__st3" d="M279 239.6c-1.3 1.4-3.1 3-5.5 4.4-5.2 3-10.2 3.3-12.8 3.3 2.2-.2 3.2-.3 3.3-.3 0 0-1.6.2-4.8.5-.2-.2-1-1-2.3-1-.9 0-1.5.3-1.8.5-.6.7-1.6 1.7-3 2.3-1.5.6-2.3.4-3.3 1-.8.5-1.7 1.6-2 4.3-2.9-1.1-6.1-2.1-9.5-3-1.5-.4-2.9-.7-4.3-1-1.4 0-2.9-.2-4.5-.5-5.6-1.1-9.7-4-12-6-4.9.3-7.9-1.1-9.7-2.3-8.6-5.7-10.3-22.6-2.6-41.4.2-3.5-.4-7.1-1.8-10.3-3-7.6-1.1-14 4.4-19.7 2.7-2.8 5.7-5.4 8.1-8.5 2.1-2.7 3.7-5.6 3.6-9.1-.4-11.4 7.5-16.2 15.7-17.1 5.9-.7 11.9-1.1 17.8-1.6 2.5-.2 5.1.2 7.5.9 3.8 1.1 6.2 3.8 7.6 7.4 2.8 7.2 5.6 14.4 8.3 21.7 1.8 4.8 4.4 9.1 7.8 12.9.9 1 1.7 2 2.5 3 3.3 4.2 2.1 9.7 1.7 12.4-.8 6.5-3.7 23.9-8.4 47.2z"/><path class="prefix__st3" d="M279 239.6c-1.4.6-2 2.1-3.4 2.9.5-3.2 1.6-6.3 1.2-9.7 1 2.2 1.8 4.5 2.2 6.8zM209.8 243.2l-2.8-1.4c.3-1.3.6-2.6 1-4.3 1 1.8 1.6 3.7 1.8 5.7z"/><animateTransform attributeName="transform" attributeType="XML" type="rotate" values="-3 245 135;3 245 135;-3 245 135;" dur="8s" repeatCount="indefinite"/></g><path class="prefix__st2" d="M383.1 322.6c-1.4-.3-1.1-1.6-1.1-2.6v-46.5-3.7c-.1 0-.2 0-.4.1h-.1c-2.3 1.7-5.1 1.3-7.8 1.5l7.8-1.5h.1v-1.5c-5.1-1.1-10.3-1.5-15.5-1.1-2 .1-3.8.9-5.7 1.1-.4.1-.6.3-.4.7 2.2 1.7 4.8 1.7 7.4 2.2-2.5.9-4.8-.6-7.1-1-.9.8-.5 1.8-.5 2.8v42.6c.1 1.1 0 2.1-.3 3.1-14.9-1.7-29.9-2.8-45.6-3.8 4.9-2.8 9-5.3 12.3-9 4.9-5.4 7.6-11.7 6.5-19.2-.4-2.5-2-4.2-3.8-5.8-.5-.5-1.4-.6-1.6-1.5-4.6-1.2-9.4-1.7-14.2-1.5-4.5.2-8.8 1.2-13.2 1.6-.2.3-.6.5-1 .4-1.3.7-2.6 1.4-3.8 2.1s-1.4 0-1.5-.9l-7.2 2.1v-14.5c.1-4.2 0-8.5.4-12.7.5-5.2-1.1-8.9-6.1-11h-6c-13.6-.2-27.2-.1-40.8-.6-7.9-.3-15.8 0-23.7-.5-1.1.2-2.3.2-3.5-.1-6.6 1.1-8.4 3.4-8.5 10.2 0 5.2.3 10.4-.2 15.6v11.6l-10.6-5.2-2.3 3.1c-2.3-1.4-3.6-3.7-4.5-6.1-5.2-1.6-10.3-3.7-15.8-4.2-2.8-.3-5.6-.2-7.6 2.3-2.4 3-4.3 6.3-5.8 9.8-3.3 8.1-1.5 14.5 5.4 19.9 4 3.2 8.7 5.1 13.3 7.2 2.8 1.3 5.7 2.4 8.6 3.6 0 .3-.1.6-.1.9-11.9 0-23.9-.1-35.8 0s-23.9.8-36.5 1.2c9.1-6.1 16.1-13.2 19.9-23 3.6-9.4 4.9-19.6 3.7-29.6-.5-.1-.7-.1-.8-.1-1.1.4-2.2.7-3.2 1.1-7.3 2.9-14 6.9-20 12-6.1 5.4-9.3 10.9-10.9 14.3-1.5 3.1-2.2 5.5-3.1 8.8-.7 2.5-4.6 15.7-1.6 17.2.3.2.9.3 2-.3l-2 .3c-.4.2-.8.3-1.2.3-2.9.1-5.9.3-8.8.5-.8 0-1.6-.3-2.3-.8l-.2-.1c-.3.2-.7.4-1.1.5l.2.1c-.9.8-1.7.3-2.5 0H74h.1c-3.6 1.5-7.5 1-11.3 1.4-17.1 1.6-34.3 2.8-51 6.9-2.9.7-5.8 1.8-8.3 3.4v2.5c6 3.7 12.8 4.7 19.5 5.8 13.7 2.3 27.6 3.6 41.5 4.6 10.3.7 20.6 1.4 31 2 12.7.6 25.4 1.1 38.1 1.5 7 .2 14 .2 21 .4.6 0 1.3-.2 1.9.4l19.8.1h61.9c.9 0 1.8-.1 2.7-.1 2.5-.8 5-.3 7.5-.4 9.1-.3 18.1-.3 27.2-.6 10.8-.4 21.5-.8 32.3-1.5 14.9-.9 29.8-1.8 44.6-3.4 11.7-1.3 23.5-2.4 34.9-5.8 2.2-.7 4.4-1.6 6.6-2.4v-3.4c-3.6-1.7-7.2-2.9-10.9-3.8z"/><path class="prefix__st2" d="M203.3 336.8c-2.3.1-3.9-.6-4.7-2.9-1.8-5.2-3-10.5-3.6-15.9l29.3 10.5c-5.9 4.9-13.3 7.9-21 8.3zM241.5 275.4c-2.8 0-5.1-2.2-5.2-5v-.3c0-2.9 2.4-5.2 5.2-5.2 2.8.1 5 2.4 5.1 5.2.1 2.9-2.2 5.3-5.1 5.3zM285.9 319.7v16.1c0 2.8-3.9 5.6-6.5 4.4-3.3-1.4-6.7-2.4-10.3-3-2.4-.5-4.7-1.1-6.6-2.8-3-.7-6-1.3-9-2-.6-.1-1.2-.4-2.1-.7 2.3-4.3 4.9-8.3 6.6-13l4.6.9c.7-1 1.9-1.5 3.1-1.3 3.9.4 7.8.1 11.2-2.3 1.4-.9 7.2-.1 8.5 1 .7.9.5 1.8.5 2.7zM381.5 269.9h.1-.1z"/><path class="prefix__st2" d="M276.8 316.2c-3.4 2.3-7.3 2.6-11.2 2.3-1.2-.2-2.4.3-3.1 1.3l-4.6-.9c-1.7 4.6-4.3 8.7-6.6 13l2.1.7c3 .7 6 1.4 9 2 1.9 1.6 4.2 2.2 6.6 2.8 3.5.6 7 1.6 10.3 3 2.6 1.2 6.5-1.6 6.5-4.4v-16.1c0-.9.2-1.8-.6-2.5-1.2-1.3-7.1-2.1-8.4-1.2z"/><path class="prefix__st0" d="M198.6 333.8c.8 2.3 2.5 3.1 4.7 2.9 7.7-.4 15.1-3.3 21-8.4L195 317.9c.6 5.4 1.8 10.8 3.6 15.9z"/><path class="prefix__st2" d="M241.6 264.9c-2.9 0-5.2 2.3-5.3 5.2-.1 2.8 2.1 5.2 4.9 5.3h.3c2.9 0 5.2-2.4 5.2-5.2v-.1c-.1-2.8-2.3-5.1-5.1-5.2z"/><path class="prefix__st4" d="M286.1 268.8c.1-4.2 0-8.5.4-12.7.5-5.2-1.1-8.9-6.1-11-.7-1.8-1.2-3.6-1.5-5.5-.4-2.4-1.2-4.7-2.2-6.8.4 3.4-.6 6.5-1.2 9.7-.6.8-.9 1.7-1.1 2.7-13.6-.2-27.2-.1-40.8-.6-7.9-.3-15.8 0-23.7-.5l-.1-.9c-.2-2-.8-3.9-1.8-5.7-.4 1.7-.7 3-1 4.3l-.6 2.2c-6.6 1.1-8.4 3.4-8.5 10.2 0 5.2.3 10.4-.2 15.6-4.9-.2-8 2.6-10.6 6.4l-2.3 3.1c-2.3-1.4-3.6-3.7-4.5-6.1-1.3-3.2-.3-6.3.4-9.3 2.1-9.5 5.2-18.9 6.4-28.6 1.1-8.6 3.7-16.7 6.5-24.7 1.1-3.2 3.4-5.8 6.4-7.4 1.5-.9 3.3-1.5 4.5-2.9 3.8-2.3 7.8-2.1 11.9-1.6.2 5.1 2.8 9.7 7.1 12.5 10.6 7 21.8 8.2 33.2 2 5.5-3 8.5-7.7 8.2-14.2-.1-1.5-.1-3.1-.2-4.6 6.9.4 13.9.7 19.7 5.3 6.5 8.3 9.9 17.8 11.9 28 1.8 9.3 4 18.4 6.3 27.6 1.5 5.7 1.9 11.6 1.3 17.4-.3 3.1-2.7 4.6-4.2 6.9-.4-.1-.8.1-1 .4-1.3.7-2.6 1.4-3.8 2.1s-1.4 0-1.5-.9c2-6.3-1-11.5-7.3-12.4z"/><path class="prefix__st0" d="M262.5 319.8c.7-1 1.9-1.5 3.1-1.3 3.9.4 7.8.1 11.2-2.3 1.4-.9 7.2-.1 8.5 1 .8.7.6 1.6.6 2.5v16.1c0 2.8-3.9 5.6-6.5 4.4-3.3-1.4-6.7-2.4-10.3-3-2.4-.5-4.7-1.1-6.6-2.8-.2-.3-.5-.6-.8-.9-3.6-3-4.1-5.6-1.7-9.7.8-1.3 1.6-2.7 2.5-4z"/><g id="prefix__leaves"><path class="prefix__st4" d="M79.4 277.6l1-3.9c2.5-7.7 6.3-14.9 11.3-21.2.6-.8 1.3-1.4 2-2.1-.7 16.4-1.4 32.9-2.2 49.3-.2 4.3-.6 8.6-.7 12.9 0 1.5-.6 2-2 2.1-2.9.1-5.9.3-8.8.5-.8 0-1.6-.3-2.3-.8-4.9-2.8-9.4-6.3-13.3-10.3-.4-.4-.7-.9-1.3-1 .1-.6-.3-.9-.6-1.3-3.9-4.8-6.8-10.4-8.4-16.4-1.8-5.9-2.6-12-2.3-18.2 10.2 3.2 19.1 8.3 26.4 16.5.5-1.7.7-3.4.7-5.1.4-.2.5-.6.5-1zM105.7 274.3c1.1 7.9 1.3 15.7-1.2 23.5-1.6 4.7-3.6 9.2-6.1 13.6-1.5 2.7-3.3 3.8-6.4 2.9-.5-1.9 0-3.9.1-5.9.4-8.6.7-17.3 1.1-25.9.5-10.6.9-21.2 1.4-31.7 5.2 6.7 8.9 14.4 10.8 22.7.1.1.2.5.3.8z"/><path class="prefix__st4" d="M74 315c-22.8-10.6-29.3-33.1-28.8-49.2 1.8 0 3.5.7 5.2 1.1.9 3.4.4 6.9.9 10.4 1.3 8.7 4 16.9 9.4 24 .6.8.9 2.2 2.4 2-.4 1.6 1.1 2.2 1.9 3 3.5 3.4 7.4 6.3 11.6 8.8-.9.8-1.8.1-2.6-.1z"/><path class="prefix__st2" d="M91.9 314c-.4-1.9.1-3.8.2-5.7.4-8.6.7-17.3 1.1-25.9.5-10.6.9-21.2 1.4-31.7l-.9-.2c-.7 16.4-1.4 32.9-2.2 49.3-.2 4.3-.6 8.6-.7 12.9 0 .4-.1.7-.2 1.1.4-.1.9.2 1.3.2z"/><path class="prefix__st4" d="M76.7 315l2.4.1-27.2-47.8-1.4-.5-.9 8.6 1.7 10 2.3 8.4 4.4 7.3 6.4 6.7L75 314z"/><animateTransform attributeName="transform" attributeType="XML" type="rotate" values="0 91 314;4 91 314;0 91 314;" dur="8s" repeatCount="indefinite"/></g><path class="prefix__st5" d="M286.1 268.8c6.2 1 9.2 6.1 7.2 12.4l-7.2 2.1v-14.5z"/><path class="prefix__st0" d="M236.3 270.1c0-2.9 2.4-5.2 5.2-5.2 2.8.1 5 2.4 5.1 5.2 0 2.9-2.3 5.3-5.2 5.3h-.1c-2.8 0-5.1-2.2-5.2-5 .2-.1.2-.2.2-.3z"/><path class="prefix__st5" d="M187.2 276.2c2.5-3.8 5.6-6.6 10.6-6.4v11.6l-10.6-5.2zM262.5 319.8c-.9 1.4-1.8 2.7-2.6 4.1-2.4 4.1-1.9 6.7 1.7 9.7.3.3.6.6.8.9-3-.7-6-1.3-9-2-.6-.1-1.2-.4-2.1-.7 2.3-4.3 4.9-8.3 6.6-13l4.6 1z"/><path class="prefix__st6" d="M279 239.6c.3 1.9.8 3.7 1.5 5.5h-6c.2-1 .5-1.9 1.1-2.7 1.3-.6 1.9-2.2 3.4-2.8z"/><path class="prefix__st4" d="M360.4 268.4c2.5-2 5.5-1.6 8.4-1.7 4.3-.2 8.8-.4 12.8 1.7-5.1-1.2-10.3-1.5-15.5-1.1-1.9.1-3.8.8-5.7 1.1zM360.2 270.3c-.2-.4-.4-.8-.2-1.2 2.2 1.7 4.8 1.7 7.4 2.2-2.6.8-4.8-.7-7.2-1zM381.6 269.8c-2.3 1.8-5.2 1.3-7.9 1.5l7.9-1.5z"/><path class="prefix__st6" d="M209.8 243.2l.1.9c-1.1.2-2.3.2-3.5-.1l.6-2.2 2.8 1.4z"/><path class="prefix__st0" d="M298.7 280c.2-.3.6-.5 1-.4-.3.3-.6.5-1 .4z"/><g id="prefix__leaf_boundary"><path class="prefix__st2" d="M64.5 304.1c-.4-.4-.7-.9-1.3-1-.4 1.6 1.1 2.2 1.9 3 3.4 3.4 7.3 6.3 11.4 8.7.4-.1.8-.3 1.1-.5-4.8-2.7-9.2-6.1-13.1-10.2z"/><path d="M63.2 303.2c-1.5.2-1.8-1.2-2.4-2-5.4-7.1-8.1-15.3-9.4-24-.5-3.5-.1-7-.9-10.4 1-1.9 0-4.2.9-6.4 5.1 1.5 10 3.6 14.5 6.4 5.1 2.9 9.3 6.8 13.5 10.8.1.4-.1.8-.4 1-.6-.4-1.1-.9-1.7-1.4-6.5-6.6-14.3-11.7-23-14.8-.7-.3-1.4-.8-2.5-.1v4.9c-.3 6.2.5 12.3 2.3 18.2 1.6 6 4.5 11.6 8.4 16.4.4.5.8.8.7 1.4z" fill="#3f3d56"/></g><path class="prefix__st5" d="M216.4 198.7c4.6-2.8 9.4-5.5 12.7-10.1-5.7-6.5-7.3-13.7-4.6-21.7 12.8 8.8 25.8 8.4 39.4 1.7 2.1 8.9-.6 16.3-7.7 22.3 2.6 1.9 5.5 2.6 8.4 3.5.1 1.6.1 3.1.2 4.6.3 6.5-2.6 11.2-8.2 14.2-11.4 6.2-22.6 5.1-33.2-2-4.1-2.8-6.8-7.4-7-12.5z"/><g id="prefix__speaker"><ellipse id="prefix___Path_2" cx="371" cy="269.1" rx="11" ry="2.2" fill="none" stroke="#00c853" stroke-width=".75"><animate attributeName="stroke" attributeType="XML" values="#00C853;#D50000;#00C853;" dur="2s" repeatCount="indefinite"/></ellipse></g><g id="prefix__cloud"><path id="prefix___Path_3" d="M42.2 57.8c-2.9-2.3-6.4-3.5-10-3.5-8.9.1-16.2 7.2-16.4 16.1-12.7 4.9-19 19.1-14.1 31.8 3.2 8.3 10.6 14.2 19.4 15.5v.2h84c12.4-.9 21.8-11.7 20.9-24.2-.8-10.7-9-19.4-19.7-20.8 0-.7.1-1.4.1-2.1 0-18-15-32.5-33.5-32.5-13.2.1-25.2 7.7-30.7 19.5" opacity=".54" fill="#cecece"/><animateTransform attributeName="transform" attributeType="XML" type="translate" dur="120s" values="0,0;250,0;0,0" repeatCount="indefinite"/><animate attributeName="opacity" attributeType="XML" dur="60s" values="0;1;0.5;0;1;0;" repeatCount="indefinite"/></g></svg>