<svg version="1.1" id="prefix__Layer_1" xmlns="http://www.w3.org/2000/svg" x="0" y="0" width="710" height="auto" viewBox="0 0 607.7 492.7" xml:space="preserve"><style>.prefix__st1{opacity:.49;fill:#f8f8f8;enable-background:new}.prefix__st2{fill:#3f3f3f}.prefix__st3{fill:#9e9e9e}.prefix__st4{fill:#f0f0f0}.prefix__st5{fill:#fff}.prefix__st6{fill:#f1f1f1}.prefix__st7{fill:#626262}.prefix__st8{fill:#424242}.prefix__st9{fill:#3f3f3f;stroke:#3f3f3f;stroke-miterlimit:10}.prefix__st12{fill:#cbcbcb}.prefix__st13{fill:#00e676}.prefix__st14{fill:#00c853}.prefix__st15{fill:#303030}.prefix__st16{fill:none;stroke:#1b1b1f;stroke-linecap:round;stroke-linejoin:round}.prefix__st20{fill:#616161}.prefix__st22{fill:#69f0ae}.prefix__st23{fill:none;stroke:#fafafa;stroke-linecap:round;stroke-linejoin:round}</style><g id="prefix__Page-1"><g id="prefix___3_work"><g id="prefix__light"><path fill="#ff0" stroke="#ff0" stroke-miterlimit="10" d="M149.8 188.1l168.7 101.6-215.4.8 6.7-76.9z"/><animate id="prefix__lamp" attributeName="opacity" attributeType="XML" values="1;0.6;1;0.6" fill="freeze" dur="1s" begin="2s;prefix__lamp.end+3s"/></g><path id="prefix__Path" class="prefix__st1" d="M417.2 46.7C297.5 79.8 199.7 3.3 137.9.2 45.2-4.5-49.3 97.9 74.7 277.3s174.8 219.8 310.4 201.4C493.6 463.9 566 361.1 586.9 289c32.6-112.8-50.1-275.4-169.7-242.3z"/><path id="prefix__Rectangle" class="prefix__st2" d="M140.4 23.9h152.2v110H140.4z"/><path id="prefix__Rectangle-2" class="prefix__st3" d="M138.7 23.9H289v110H138.7z"/><path id="prefix__Rectangle-3" class="prefix__st4" d="M144.6 30.3h138.6v97.2H144.6z"/><path id="prefix__Rectangle-4" class="prefix__st2" d="M144.6 30.3h2.7v97.2h-2.7z"/><path id="prefix__Path-2" class="prefix__st3" d="M147.3 110.8l36.4-24 42.5 9 44.4-48.7L283.2 61v66.5H147.3z"/><ellipse id="prefix__Oval" class="prefix__st5" cx="168.9" cy="55.8" rx="8.9" ry="11.2"/><path id="prefix__Path-3" class="prefix__st5" d="M168.2 97l12.3 5.3 10.4-7.1 21.4-2.4-28.6-6z"/><path id="prefix__Path-4" class="prefix__st5" d="M256.3 62.7l9.8 5.9 6.4-4.3 6.7 2.7 4.3-1.3-.3-4.7-12.6-13.9z"/><path id="prefix__Path-5" class="prefix__st5" d="M147.3 117.8c11.1-7.2 24.4-10.1 37.4-8.1 22.1 3.3 24 14.6 44.7 9.8s29.2-28.3 38.7-26.6 15.3 12 15.3 12l-.3 22.5H147.3v-9.6z"/><path id="prefix__Path-6" class="prefix__st2" d="M147.3 119.6s15.3-9.3 37.4-6.6 24 11.9 44.7 8 29.2-23 38.7-21.6 15.3 9.7 15.3 9.7l-.3 18.4H147.3v-7.9z"/><path id="prefix__Path-7" class="prefix__st1" d="M59.7 314.8c2.5-12.5 19.2-15.2 25.7-4.3 15.4 25.9 49.1 72.5 80 99.5 43.3 37.8-29.1 74.9-70.5 58.1S55.5 336.4 59.5 315.4l.2-.6z"/><path id="prefix__Path-8" class="prefix__st2" d="M161.9 247.2s-5.1-2.3-7.3-4.7-13.6-17.6-15.6-18c-1.9-.4-3.9 0-5.4 1.3-1.4 1.2 21.2 45.2 21.2 45.2l20.1-6.9-13-16.9z"/><path id="prefix__Path-9" class="prefix__st6" d="M133.5 225.8s-1.1 0-2.2 2.1-.3 12 3.1 19.3 7.3 21 8.1 22.6c1.2 1.8 3.3 2.9 5.4 2.6 1.9-.4 5.3-.9 6.7-1.4s2.7-2.7-2.4-11.7-7.9-13.2-10.4-20.4-3.6-11.1-5.4-12.1c-.8-.6-1.8-1-2.9-1z"/><path id="prefix__Path-10" class="prefix__st7" d="M327 296.8s-49.8-42.6-65.2-52-98.5 0-99.4 0-3.7 5.8-3.7 11.5 7.8 13 7.8 13l73 2.6 85 36.1 2.5-11.2z"/><path id="prefix__Path-11" class="prefix__st8" d="M211.9 247.8c-12.4.9-37.4 5-53.3 7.8v.8c0 5.7 7.8 13 7.8 13l73 2.6 85 36.1 2.6-11.3s-23.1-19.8-42.8-35.4c-26.2-6.5-60.9-14.5-72.3-13.6z"/><path id="prefix__Path-12" class="prefix__st2" d="M174.9 268.5s-4.6-3.3-6.2-6.1-9.7-19.9-11.7-20.7c-1.8-.8-3.9-.8-5.6.2-1.6.9 11.6 48.6 11.6 48.6l21.1-2.8-9.2-19.2z"/><path id="prefix__Path-13" class="prefix__st2" d="M363.2 472l-77.9 9.7h84.3V472z"/><path id="prefix__Path-14" class="prefix__st9" d="M376 472l78 9.7h-84.4V472z"/><path id="prefix__Rectangle-5" class="prefix__st2" d="M363.2 353.9H376V472h-12.8z"/><path id="prefix__Rectangle-6" class="prefix__st2" d="M357.9 359.9h23.4v21.8h-23.4z"/><linearGradient id="prefix__Rectangle-7_1_" gradientUnits="userSpaceOnUse" x1="-590.779" y1="593.093" x2="-590.829" y2="594.673" gradientTransform="matrix(111.63 0 0 -12.25 66276.086 7662.22)"><stop offset="0" stop-color="#223762"/><stop offset="1" stop-color="#041b48"/></linearGradient><path id="prefix__Rectangle-7" fill="url(#prefix__Rectangle-7_1_)" d="M258 343.5h111.6v12.3H258z"/><path id="prefix__Path-15" class="prefix__st2" d="M466.1 202.8H352.8c-2.8 0-5 2.7-5 6v.3c-.2 14.8-1.2 29.5-3 44.2-1.4 11.8-3.5 23.5-6.4 35.1-2.9 11.4-6.7 21.9-11.5 29.7-5.3 8.7-12.4 16.1-20.9 21.7-8.4 5.6-17.9 8.9-27.4 8.9-6.5 0-12.8-1.6-18.5-4.6-2.5-1.3-5.5.1-6.6 3.1s.1 6.6 2.6 8c6.2 3.3 13 5.2 20 5.5l.1.1h113.5l50.4-30.4 16.5-28.4 10.1-76.6-.6-22.6z"/><path id="prefix__Rectangle-8" fill="#525252" d="M342 343.5h27.3v12.8H342z"/><path id="prefix__Path-16" class="prefix__st7" d="M459 208.8v.2c-.2 14.8-1.2 29.5-3 44.2-1.4 11.8-3.5 23.5-6.4 35.1-2.9 11.4-6.8 21.9-11.5 29.7-5.3 8.7-12.4 16.1-20.9 21.7-8.4 5.6-17.9 8.9-27.4 8.9-6.5 0-12.8-1.6-18.5-4.6-2.5-1.3-5.5.1-6.6 3.1s.1 6.6 2.6 8c6.9 3.7 14.7 5.6 22.5 5.6 11.4 0 22.5-4 32.1-10.4 9.8-6.5 18-15.1 24.1-25.1 5.9-9.7 10.1-21.8 13.3-34.4 4.8-19 7.1-39.3 8.3-55s1.2-26.7 1.2-26.8c0-3.3-2.2-6.1-5-6.1s-4.8 2.7-4.8 5.9z"/><path id="prefix__Path-17" class="prefix__st7" d="M398.9 314s-5.3 16-25.8 25.4-50.5 14-69.4 8c-32-10-63.4-67.9-63.4-67.9L180 289.8c-3.7-3.6-5.9-8.6-6-13.8v-9.2s62.9-15.9 76.6-16.2 71 49.2 74.2 51.8 15.9-14.9 15.9-14.9l58.2 26.5z"/><path id="prefix__Path-18" class="prefix__st8" d="M327 330c-18.7 1.5-35.2-8.3-49.1-17.8s-22.9-42.1-43.3-42.6c-15.7-.4-46.6 6.9-60.1 10.3.9 3.7 2.8 7.1 5.6 9.8l60.4-10.3s31.5 57.9 63.4 67.9c18.9 5.9 48.9 1.5 69.4-8s25.8-25.4 25.8-25.4l-38.8-17.5c-7.5 13-20.8 32.7-33.3 33.6z"/><path id="prefix__Path-19" class="prefix__st12" d="M398.3 111.5s1.4-1.6 8-4.9 20.5-1.7 21-1.2 3.9 13.7-2.9 17.8-12.8 5.4-16.4 4.6-8.8-1.6-8.8-1.6l-.9-14.7z"/><path id="prefix__Path-20" class="prefix__st12" d="M478.5 131.9s.9-5-6.1-11.8-21-11.5-26.4-7.6-3.9 13.2-3.9 13.8 17.6 6.7 17.6 6.7l-8.1 1s10.1 6.1 14.3 7 12.6-9.1 12.6-9.1z"/><path id="prefix__Path-21" class="prefix__st12" d="M387.5 178.2s-21.6-8.7-27.4-22.3 42.8-27.6 42.8-27.6.9-6.7 1.6-11.7-6.3-6-6.3-6-16.8 3-45.2 13.5c-21.3 7.9-22 10-25.1 21.3s25.4 49.7 36.9 73.9c6.9 14.5 22.7-41.1 22.7-41.1z"/><path id="prefix__Path-22" class="prefix__st13" d="M420.1 183.3s22.1 1.7 27.5 5.6 9.3 13.6 10.9 23.4-17.9 67-35.2 88.6-21.4 19.5-21.4 19.5-58-6.6-68.7-12.9-15.5-12.8-15.5-12.8 27.7-45.5 34.1-69.9 11.7-41.6 22.7-44.9 23.7-3.4 23.7-3.4l21.9 6.8z"/><path id="prefix__Path-23" class="prefix__st14" d="M458.4 212.2c-.5-3-1.2-6-2.1-8.9l-13.4.9s4.5 16.7 2.1 23.1-16.6 19.2-32.7 22 4.3 9.3 6 14.9-33.9 17.2-55.5 11c-9.7-2.7-19-6.3-28-10.9-8.6 16.5-17 30.3-17 30.3s4.8 6.6 15.5 12.8 68.7 12.9 68.7 12.9 4.1 2.1 21.4-19.5 36.6-78.9 35-88.6z"/><path id="prefix__Path-24" class="prefix__st5" d="M401.5 176.7c-1.4.4-2.5 1.3-3.2 2.5-1.5 2.9-.9 6.5 1.6 8.7 3.1 2.6 14.3 4.7 19.8 2.5s4.7-6.1 4.7-6.1l-22.9-7.6z"/><path id="prefix__Path-25" class="prefix__st12" d="M404.3 159.3l-2.9 17.4s1.2 4 8 6.6 15 .9 15 .9l6.5-16.4-26.6-8.5z"/><path id="prefix__Path-26" class="prefix__st15" d="M417.8 97.5S407.5 120 404.1 128s5.8 13.9 5.8 13.9l20.5-9.7 2.8-26.6-15.4-8.1z"/><path id="prefix__Path-27" class="prefix__st12" d="M407.3 125.1c-3 9.3-6.6 20.5-6.5 31.6s18.2 20.4 27.5 15.2 16.1-16.5 16.1-16.5 6.3 3 9.9-1.3 6-11.6 3.5-14.3-6.7-.4-6.7-.4 4.7-9 .3-17.5-30.8-16.2-32.6-15.6-8.5 9.5-11.5 18.8z"/><path id="prefix__Path-28" class="prefix__st8" d="M442.3 149.7s6.9-10.7 8-16.4-.4-10.2-5.7-14.7-23.3-9-26.8-11.7-5-5.3-.7-12.5 19.5-13.7 34.5-6 19.8 17.5 23.1 24.2-4.8 18.4-10.4 28.7-15 23.6-20.2 27.6-11.9.1-11.9.1l12.4-14.9s2.2 2.1 6.5-.2 8-8.2 7.4-11.9-5.7-4.8-8.7-1.5-7.5 9.2-7.5 9.2z"/><path id="prefix__Path-29" class="prefix__st16" d="M414.5 131.7s-6.5 10.8-7.2 13.9 7.6 3.8 7.6 3.8"/><path id="prefix__Path-30" class="prefix__st15" d="M457 111.8c-7-6.3-34.4-8.4-36.6-13.2-.7-1.5-.6-4.3-.1-7.5-1.2 1-2.3 2.2-3.1 3.5-4.3 7.2-2.8 9.9.7 12.5s21.5 7.2 26.8 11.7 6.8 9 5.7 14.6-8 16.4-8 16.4 21.5-31.7 14.6-38z"/><path id="prefix__Path-31" class="prefix__st16" d="M449.9 144.5s2.8-.6 2.8 1.6-.8 4.1-3.8 4.4c-1 .1-1.8-.6-2-1.6"/><path id="prefix__Path-32" class="prefix__st16" d="M421.9 127.4s1.1 7.7 5.4 8.7c2.3.7 4.8.5 7.1-.4"/><path id="prefix__Path-33" class="prefix__st16" d="M416.8 125.2s-2.9 2.6-5.4 2-.8-4.7-.8-4.7"/><path id="prefix__Path-34" class="prefix__st12" d="M444.1 188s50.7-6.2 57.7-12.1-36.5-34-36.5-34 6.5-11.3 10.6-11.9l4.1-.6s51.4 28.6 56.3 42.6-24.1 34-40.6 40.8c-16.5 6.8-38 15.7-47.7 12.7s-12.4-16.9-9.5-26.4 5.6-11.1 5.6-11.1z"/><path id="prefix__Path-35" class="prefix__st2" d="M209.3 481.7h12.2l-47.4-176.9h-12.2z"/><path id="prefix__Path-36" class="prefix__st2" d="M114.2 481.7H102l47.4-176.9h12.2z"/><path id="prefix__Path-37" class="prefix__st2" d="M490 481.7h12.1l-47.4-176.9h-12.1z"/><path id="prefix__Path-38" class="prefix__st2" d="M394.8 481.7h-12.1l47.4-176.9h12.1z"/><path id="prefix__Path-39" class="prefix__st2" d="M148.5 481.7h12.1l-47.4-176.9h-12.1z"/><path id="prefix__Path-40" class="prefix__st2" d="M53.3 481.7H41.2l47.4-176.9h12.1z"/><path id="prefix__Rectangle-9" class="prefix__st2" d="M31.3 153.6l.2-1.2c.1-.7.8-1.2 1.6-1.1l72.4 13.1c.7.1 1.2.8 1.1 1.6l-.2 1.2c-.1.7-.8 1.2-1.6 1.1l-72.4-13.1c-.8-.2-1.3-.9-1.1-1.6z"/><circle id="prefix__Oval-2" cx="127.8" cy="197.7" r="11.2" opacity=".48" fill="#ef8c48"/><path id="prefix__Rectangle-10" class="prefix__st2" d="M32.7 145.8l.2-1.2c.1-.7.8-1.2 1.6-1.1l72.4 13.1c.7.1 1.2.8 1.1 1.6l-.2 1.2c-.1.7-.8 1.2-1.6 1.1l-72.4-13.1c-.8-.2-1.3-.9-1.1-1.6z"/><path id="prefix__Rectangle-11" class="prefix__st2" d="M39.6 147.2l1.2-.2c.7-.1 1.4.3 1.6 1.1l27.9 148.4c.1.7-.3 1.4-1.1 1.6l-1.2.2c-.7.1-1.4-.3-1.6-1.1L38.5 148.7c-.1-.7.3-1.4 1.1-1.5z"/><path id="prefix__Rectangle-12" class="prefix__st3" d="M96.8 155.9l6.2-3.9c1.4-.9 3.2-.5 4.1.9l25.6 40.1c.9 1.4.5 3.2-.9 4.1l-6.2 3.9c-1.4.9-3.2.5-4.1-.9L95.9 160c-.9-1.4-.4-3.2.9-4.1z"/><linearGradient id="prefix__Oval-3_1_" gradientUnits="userSpaceOnUse" x1="-577.25" y1="586.516" x2="-577.28" y2="586.936" gradientTransform="scale(15.98 -15.98) rotate(32.51 744.527 1291.487)"><stop offset="0" stop-color="#ffc063"/><stop offset=".95" stop-color="#e44d0b"/></linearGradient><circle id="prefix__Oval-3" cx="127.8" cy="197.7" r="8" fill="url(#prefix__Oval-3_1_)"/><path id="prefix__Path-41" class="prefix__st3" d="M112 172.9c11-7 28-.2 37.8 15.2l-40 25.5c-9.9-15.5-8.9-33.7 2.2-40.7z"/><path id="prefix__Path-42" class="prefix__st2" d="M149.8 188.1L139 195c-7.2-11.3-16.6-19.4-25.3-23 11-5.4 26.8 1.4 36.1 16.1z"/><path id="prefix__Rectangle-13" class="prefix__st2" d="M31.8 148.6l1.2-.2c.7-.1 1.4.3 1.6 1.1l27.9 148.4c.1.7-.3 1.4-1.1 1.6l-1.2.2c-.7.1-1.4-.3-1.6-1.1L30.7 150.2c-.1-.7.4-1.4 1.1-1.6z"/><circle id="prefix__Oval-4" class="prefix__st2" cx="39.5" cy="150" r="9.6"/><circle id="prefix__Oval-5" class="prefix__st3" cx="37.7" cy="150" r="9.6"/><circle id="prefix__Oval-6" cx="37.7" cy="150" r="4.8" fill="#1b1b1f"/><path id="prefix__Rectangle-14" class="prefix__st2" d="M41.2 290.5h462.3v14.3H41.2z"/><path id="prefix__Rectangle-15" class="prefix__st2" d="M418.4 290.5h85.1v14.3h-85.1z"/><path id="prefix__Rectangle-16" class="prefix__st2" d="M41.2 300.1h462.3v4.6H41.2z"/><path id="prefix__Rectangle-17" class="prefix__st2" d="M418.8 300.1h84.7v4.6h-84.7z"/><path id="prefix__Path-43" class="prefix__st2" d="M431.1 481.7h12.1l-47.4-176.9h-12.2z"/><path id="prefix__Path-44" class="prefix__st2" d="M335.9 481.7h-12.1l47.4-176.9h12.1z"/><path id="prefix__Path-45" class="prefix__st9" d="M3.7 492.2h600l-41.2-10.5H41.7z"/><path id="prefix__Path-46" class="prefix__st6" d="M151.4 241.9s-1.1-.2-2.6 1.6-2.7 11.7-.8 19.5c1.9 7.8 3 22 3.4 23.7.8 2 2.6 3.5 4.8 3.7 1.9 0 5.4.2 6.9 0s3.2-2.1 0-12-5.1-14.4-6.1-22-1.3-11.6-2.8-13c-.8-.7-1.8-1.3-2.8-1.5z"/><path id="prefix__Path-47" class="prefix__st3" d="M85.5 290.5h44.6l-12.5-59.7H73z"/><path id="prefix__Path-48" class="prefix__st2" d="M81.6 290.5H127l-12.7-59.7H68.9z"/><path id="prefix__Path-49" class="prefix__st20" d="M92 249.3l-15.1 41.2h23.9l-6.4-41.2z"/><path id="prefix__Path-50" class="prefix__st3" d="M94.4 249.3l-15.1 41.2h23.8z"/><path id="prefix__Path-51" class="prefix__st2" d="M504.9 306.9c-8.8 33.4-4.8 66.2 8.6 90.2 23.5-14.3 43.2-40.8 52-74.2s4.8-66.2-8.6-90.2c-23.5 14.2-43.2 40.8-52 74.2z"/><path id="prefix__Path-55" class="prefix__st2" d="M527.4 178.5c-4 29.3-.5 56.3 8.1 74.5 13.2-15.3 23.8-40.3 27.8-69.6s.5-56.3-8.1-74.5c-13.2 15.2-23.8 40.3-27.8 69.6z"/><path id="prefix__Path-59" fill="#e0e0e0" d="M554 481.7h-69l-10.2-89.3h89.4z"/><path id="prefix__Path-60" class="prefix__st3" d="M474.8 392.4l10.2 89.3h26.4l-7.6-89.3z"/><path id="prefix__Rectangle-18" class="prefix__st3" d="M471.3 389.8h96.4v22h-96.4z"/><g id="prefix__leaves"><path id="prefix__Path-56" class="prefix__st14" d="M500.2 225.4c1.2-26.8 3-75.2 4-103.3-18.6 23-30.6 58.3-30.6 97.9 0 39.1 11.7 74 29.9 97-1.9-27.1-4.4-67.2-3.3-91.6z"/><path id="prefix__Path-57" class="prefix__st22" d="M536.3 219.9c0-40.2-12.3-75.9-31.3-98.9-.3.3-.5.7-.8 1-1 28.2-2.8 76.5-4 103.3-1.1 24.4 1.3 64.5 3.4 91.6.5.6.9 1.2 1.4 1.8 19.1-22.9 31.3-58.6 31.3-98.8z"/><path id="prefix__Path-58" class="prefix__st14" d="M536.5 247.3c-7.2 24.1-6.3 47.7 1 64.9 15.5-10.4 29.3-29.6 36.5-53.6s6.3-47.7-1-64.9c-15.5 10.3-29.2 29.6-36.5 53.6z"/><ellipse id="prefix__Oval-7" class="prefix__st13" cx="506.4" cy="231.7" rx="3.5" ry="6.3"/><ellipse id="prefix__Oval-8" transform="rotate(-45.001 514.577 238.726)" class="prefix__st13" cx="514.6" cy="238.7" rx="6.3" ry="3.6"/><ellipse id="prefix__Oval-9" transform="rotate(-45.001 513.453 272.288)" class="prefix__st13" cx="513.5" cy="272.3" rx="8.7" ry="4.9"/><ellipse id="prefix__Oval-10" transform="rotate(-65.032 511.459 289.733)" class="prefix__st13" cx="511.4" cy="289.7" rx="8.7" ry="4.9"/><path id="prefix__Path-61" class="prefix__st13" d="M453.2 308.4c11 27.8 29.3 49.1 48.7 59.7-27-30.4-54.2-136.6-54.2-136.6-6.9 21.1-5.5 49.1 5.5 76.9z"/><path id="prefix__Path-62" class="prefix__st22" d="M496.4 291.2c-11-27.8-29.3-49.1-48.7-59.7 0 0 27.2 106.2 54.1 136.6 6.9-21.1 5.6-49.1-5.4-76.9z"/><path id="prefix__Path-63" class="prefix__st22" d="M496.4 291.2c-11-27.8-29.3-49.1-48.7-59.7 0 0 27.2 106.2 54.1 136.6 6.9-21.1 5.6-49.1-5.4-76.9z"/><ellipse id="prefix__Oval-11" transform="rotate(-22.731 477.581 311.38)" class="prefix__st13" cx="477.6" cy="311.4" rx="2.7" ry="4.9"/><ellipse id="prefix__Oval-12" transform="rotate(-22.731 495.212 314.285)" class="prefix__st13" cx="495.2" cy="314.3" rx="2.7" ry="4.9"/><ellipse id="prefix__Oval-13" transform="rotate(-67.772 487.397 312.12)" class="prefix__st13" cx="487.4" cy="312.1" rx="4.9" ry="2.8"/><ellipse id="prefix__Oval-14" transform="rotate(-67.728 486.901 323.43)" class="prefix__st13" cx="486.9" cy="323.4" rx="4.9" ry="2.7"/><ellipse id="prefix__Oval-15" transform="rotate(-67.728 494.674 338.194)" class="prefix__st13" cx="494.7" cy="338.2" rx="6.7" ry="3.8"/><ellipse id="prefix__Oval-16" transform="matrix(.03909 -.9992 .9992 .03909 127.973 835.403)" class="prefix__st13" cx="498.3" cy="351.2" rx="6.7" ry="3.8"/><path id="prefix__Path-54" class="prefix__st23" d="M495.2 349.9s7.7 20.9 13.3 34.5c5.6 13.5 10.8 27.5 10.8 27.5"/><path id="prefix__Path-53" class="prefix__st23" d="M502.9 295.9s3.8 32.1 8.5 56.9c4.7 24.8 7.9 57.5 7.9 57.5"/><path id="prefix__Path-52" class="prefix__st23" d="M540 305.5c-5.5 15.5-10.1 31.4-13.7 47.5-6.4 28-4.8 61.3-4.8 61.3"/><animateTransform attributeName="transform" attributeType="XML" type="rotate" values="0,521,414;-2,521,414;0,521,414;2,521,414;0,521,414" dur="5s" repeatCount="indefinite"/></g><path id="prefix__Path-64" class="prefix__st2" d="M257.9 355.7h99.5l3.4-12.2H257.9z"/><g id="prefix__msg3"><path id="prefix__Path-65" class="prefix__st14" d="M251.9 177.7h-27.3c-2.1 0-3.7 1.7-3.7 3.7v16.8c0 2.1 1.6 3.8 3.7 3.8h6l5.6 7.7h2.1l7.7-7.7h6c2.1 0 3.7-1.7 3.7-3.7v-16.8c0-2.1-1.6-3.7-3.7-3.7 0-.1 0-.1-.1-.1z"/><path id="prefix__Path-66" class="prefix__st14" d="M249.9 177.7h-27.3c-2.1 0-3.7 1.7-3.7 3.7v16.8c0 2.1 1.7 3.7 3.7 3.7h6l7.7 7.7 7.7-7.6h6c2.1 0 3.7-1.7 3.7-3.7v-16.8c0-2.1-1.6-3.7-3.8-3.8.1 0 0 0 0 0z"/><animateTransform id="prefix__mssg03" attributeName="transform" attributeType="XML" type="translate" dur="2s" from="0,50" to="0,0" begin="0s;prefix__mssg03.end+8s"/><animate attributeName="opacity" attributeType="XML" values="0;1;1;0" dur="2s" begin="0s;prefix__mssg03.end+8s" fill="freeze"/></g><g id="prefix__msg2"><path id="prefix__Path-67" class="prefix__st14" d="M210.5 126.7h-27.3c-2.1 0-3.7 1.7-3.7 3.7v16.8c0 2.1 1.7 3.7 3.7 3.7h6l5.6 7.7h2.1l7.7-7.7h6c2.1 0 3.7-1.7 3.7-3.7v-16.8c0-1-.4-2-1.1-2.7-.8-.6-1.7-1-2.7-1z"/><path id="prefix__Path-68" class="prefix__st14" d="M208.4 126.7h-27.3c-2.1 0-3.7 1.7-3.7 3.7v16.8c0 2.1 1.7 3.7 3.7 3.7h6l7.7 7.7 7.7-7.7h6c2.1 0 3.7-1.7 3.7-3.7v-16.8c0-1-.4-2-1.1-2.7-.7-.6-1.7-1-2.7-1z"/><animateTransform id="prefix__mssg02" attributeName="transform" attributeType="XML" type="translate" dur="2s" from="0,50" to="0,0" begin="0s;prefix__mssg02.end+6s"/><animate attributeName="opacity" attributeType="XML" values="0;1;1;0" dur="2s" begin="0s;prefix__mssg02.end+6s" fill="freeze"/></g><g id="prefix__msg1"><path id="prefix__Path-69" class="prefix__st14" d="M299.1 145.8h-27.3c-2.1 0-3.7 1.7-3.7 3.7v16.8c0 2.1 1.7 3.7 3.7 3.7h6l5.6 7.7h2.1l7.7-7.7h6c2.1 0 3.7-1.7 3.7-3.7v-16.8c0-2.1-1.7-3.7-3.7-3.7h-.1z"/><path id="prefix__Path-70" class="prefix__st14" d="M297 145.8h-27.3c-2.1 0-3.7 1.7-3.7 3.7v16.8c0 2.1 1.7 3.7 3.7 3.7h6l7.7 7.7 7.7-7.7h6c2.1 0 3.7-1.7 3.7-3.7v-16.8c0-2.1-1.7-3.7-3.7-3.7h-.1z"/><animateTransform id="prefix__mssg01" attributeName="transform" attributeType="XML" type="translate" dur="2s" from="0,50" to="0,0" begin="0s;prefix__mssg01.end+2s"/><animate attributeName="opacity" attributeType="XML" values="0;1;1;0" dur="2s" begin="0s;prefix__mssg01.end+2s" fill="freeze"/></g><path id="prefix__Path-71" class="prefix__st14" d="M256.5 290.5s-34.1.4-47.9-.8-19.3-9.7-20.5-13.5c-.7-2.1-1.2-4.3-1.3-6.5h-43.4c.1 2.2.5 4.4 1.3 6.5 1.3 3.8 6.7 12.4 20.5 13.5s47.9.8 47.9.8h43.4z"/><path id="prefix__Rectangle-19" d="M290.9 285.3h43.5c.3 0 .6.3.6.6v4.1c0 .3-.3.6-.6.6h-43.5c-.3 0-.6-.3-.6-.6v-4.1c0-.4.3-.6.6-.6z" fill="#223762"/><path id="prefix__Path-72" class="prefix__st20" d="M213.8 290.5h83.6c1.6 0 2.6-1.6 2.2-3.6l-14.2-65.1c-.4-2-2.1-3.6-3.7-3.6h-83.6c-1.6 0-2.6 1.6-2.2 3.6l14.2 65.1c.4 2 2.1 3.6 3.7 3.6z"/><path id="prefix__Path-73" class="prefix__st3" d="M209.7 290.5h83.6c1.6 0 2.6-1.6 2.2-3.6l-14.2-65.1c-.4-2-2.1-3.6-3.7-3.6H194c-1.6 0-2.6 1.6-2.2 3.6l14.2 65.1c.4 2 2.1 3.6 3.7 3.6z"/><path id="prefix__Path-74" class="prefix__st6" d="M239.6 247.5c-.5-1.1-.8-2.2-1-3.3-.9 0-1.9.3-2.6.9-3 2.3-3.6 8.3-1.3 13.4 2.2 5.1 6.5 7.4 9.5 5.1 2.4-1.8 3.2-5.9 2.4-10.1-2.7 0-5.4-2.2-7-6z"/><path id="prefix__Path-75" class="prefix__st14" d="M321.4 248.5v-13.3l12.2-9.6 1.6 2.5-10.8 8.4v12z"/><path id="prefix__Path-76" class="prefix__st6" d="M333 291.2h-19.3l-3.6-41.9h26.5z"/><path id="prefix__Path-77" fill="#f8f8f8" d="M336.6 246.8h-26.3l-1.3 4.5h28.8z"/><path id="prefix__Path-78" class="prefix__st14" d="M345.9 269l-3.8 3.2-3-1.6-.7 5.1 13.7 9.5 11.4-5.3 3.3-1v-6.6z"/><path id="prefix__Path-79" class="prefix__st4" d="M341.4 290.8l-4.8-17h34.7l-2.1 17z"/><path id="prefix__Path-80" opacity=".48" fill="#ff0" stroke="#ff0" stroke-miterlimit="10" d="M369.2 290.8h18.5l5-17h-21.4z"/><path id="prefix__Path-81" class="prefix__st4" d="M349.6 255.4l-7.5 16 34.2 5.5.7-17.1z"/><path id="prefix__Path-82" fill="#fafafa" d="M377 259.8l18.3 3 2.2 17.6-21.2-3.5z"/></g></g></svg>