<svg xmlns="http://www.w3.org/2000/svg" width="24" height="24" viewBox="0 0 24 24"><g style="isolation:isolate"><path d="M17.906,0H11.063a.469.469,0,0,0,0,.938h6.844a5.162,5.162,0,0,1,5.156,5.156V17.906a5.162,5.162,0,0,1-5.156,5.156H6.094A5.162,5.162,0,0,1,.938,17.906V6.094A5.162,5.162,0,0,1,6.094.938H7.313a.469.469,0,0,0,0-.937H6.094A6.1,6.1,0,0,0,0,6.094V17.906A6.1,6.1,0,0,0,6.094,24H17.906A6.1,6.1,0,0,0,24,17.906V6.094A6.1,6.1,0,0,0,17.906,0Zm0,0" fill="#1b1b1f"/><path d="M54.813,60.25h1.219a4.224,4.224,0,0,0,4.219-4.219V44.219A4.224,4.224,0,0,0,56.031,40H44.219A4.224,4.224,0,0,0,40,44.219V56.031a4.224,4.224,0,0,0,4.219,4.219h6.844a.469.469,0,0,0,0-.937H44.219a3.285,3.285,0,0,1-3.281-3.281V44.219a3.285,3.285,0,0,1,3.281-3.281H56.031a3.285,3.285,0,0,1,3.281,3.281V56.031a3.285,3.285,0,0,1-3.281,3.281H54.813a.469.469,0,0,0,0,.938Zm0,0" transform="translate(-38.125 -38.125)" fill="#1b1b1f"/><path d="M156.313,151.156a5.156,5.156,0,1,0-5.156,5.156A5.162,5.162,0,0,0,156.313,151.156Zm-5.156,4.219a4.219,4.219,0,1,1,4.219-4.219A4.224,4.224,0,0,1,151.156,155.375Zm0,0" transform="translate(-139.156 -139.156)" fill="#1b1b1f"/><path d="M189.281,186a3.281,3.281,0,1,0,3.281,3.281A3.285,3.285,0,0,0,189.281,186Zm0,5.625a2.344,2.344,0,1,1,2.344-2.344A2.346,2.346,0,0,1,189.281,191.625Zm0,0" transform="translate(-177.281 -177.281)" fill="#1b1b1f"/><path d="M345.75,91.879a1.875,1.875,0,1,0-1.875,1.875A1.877,1.877,0,0,0,345.75,91.879Zm-2.812,0a.938.938,0,1,1,.938.938A.938.938,0,0,1,342.938,91.879Zm0,0" transform="translate(-325.969 -85.785)" fill="#1b1b1f"/><path d="M186.469.938a.469.469,0,0,0,0-.937h0a.469.469,0,0,0,0,.938Zm0,0" transform="translate(-177.281)" fill="#1b1b1f"/><path d="M306.469,452a.469.469,0,1,0,.469.469.469.469,0,0,0-.469-.469Zm0,0" transform="translate(-291.656 -430.813)" fill="#1b1b1f"/></g></svg>