<svg xmlns="http://www.w3.org/2000/svg" width="26" height="23.75" viewBox="0 0 26 23.75"><g style="isolation:isolate"><g transform="translate(0 0)"><path d="M.844,195.313h3.38a.844.844,0,0,0,.844-.844V179.694a.844.844,0,0,0-.844-.844H.844a.844.844,0,0,0-.844.844v14.774A.844.844,0,0,0,.844,195.313Z" transform="translate(0 -171.563)" fill="#1b1b1f"/><path d="M.844,28.606h3.38a.844.844,0,0,0,.844-.844v-3a.844.844,0,0,0-.844-.844H.844A.844.844,0,0,0,0,24.76v3A.844.844,0,0,0,.844,28.606Z" transform="translate(0 -23.916)" fill="#1b1b1f"/><path d="M197.733,171.792a5.14,5.14,0,0,0-2.1-1.542,7.608,7.608,0,0,0-3.067-.6,7.51,7.51,0,0,0-5.771,2.6c-.314.345-.542.269-.542-.2v-1.126a.844.844,0,0,0-.844-.844h-3.019a.844.844,0,0,0-.844.844V185.7a.844.844,0,0,0,.844.844h3.38a.844.844,0,0,0,.844-.844v-5.138a16.529,16.529,0,0,1,.388-4.4,3.635,3.635,0,0,1,1.434-1.912,4.064,4.064,0,0,1,2.363-.722,3.016,3.016,0,0,1,1.759.505,2.815,2.815,0,0,1,1.055,1.416,15.106,15.106,0,0,1,.325,4.014V185.7a.844.844,0,0,0,.844.844h3.38A.844.844,0,0,0,199,185.7V177.33a15.845,15.845,0,0,0-.279-3.409A5.583,5.583,0,0,0,197.733,171.792Z" transform="translate(-173.005 -162.79)" fill="#1b1b1f"/></g></g></svg>