<svg xmlns="http://www.w3.org/2000/svg" width="29.411" height="23.903" viewBox="0 0 29.411 23.903"><g style="isolation:isolate"><path d="M9.331,20.078c11.1,0,17.169-9.2,17.169-17.169q0-.392-.017-.78a12.28,12.28,0,0,0,3.01-3.125,12.039,12.039,0,0,1-3.465.95,6.057,6.057,0,0,0,2.653-3.338,12.1,12.1,0,0,1-3.832,1.465,6.039,6.039,0,0,0-10.283,5.5,17.132,17.132,0,0,1-12.438-6.3A6.02,6.02,0,0,0,1.311.314,6.029,6.029,0,0,0,4,5.336a5.987,5.987,0,0,1-2.733-.755c0,.025,0,.05,0,.077A6.036,6.036,0,0,0,6.1,10.574a6.056,6.056,0,0,1-1.591.212,6,6,0,0,1-1.134-.109,6.041,6.041,0,0,0,5.637,4.191,12.106,12.106,0,0,1-7.495,2.583,12.28,12.28,0,0,1-1.439-.084,17.081,17.081,0,0,0,9.25,2.711" transform="translate(-0.082 3.824)" fill="#1b1b1f"/></g></svg>