<svg xmlns="http://www.w3.org/2000/svg" width="34.795" height="23.922" viewBox="0 0 34.795 23.922"><g style="isolation:isolate"><g transform="translate(0 0)"><path d="M33.316,82.305c-.944-1.679-1.968-1.988-4.054-2.105C27.179,80.059,21.94,80,17.4,80s-9.788.059-11.869.2c-2.081.12-3.108.426-4.06,2.107C.5,83.982,0,86.87,0,91.954v.017c0,5.063.5,7.972,1.472,9.632.953,1.679,1.977,1.983,4.058,2.125,2.083.122,7.324.194,11.872.194s9.777-.072,11.863-.191c2.086-.141,3.11-.446,4.054-2.125.981-1.659,1.477-4.569,1.477-9.632v-.017C34.795,86.87,34.3,83.982,33.316,82.305ZM13.048,98.485V85.437l10.873,6.524Z" transform="translate(0 -80)" fill="#1b1b1f"/></g></g></svg>