<svg xmlns="http://www.w3.org/2000/svg" width="255.459" height="40.959"><path d="M1.457 13.556c0 17.868 14.9 25.388 14.9 25.388s14.9-7.52 14.9-25.388V5.264h-29.8z" fill="#f1f1f1"/><path d="M16.359 5.264v33.678s14.9-7.52 14.9-25.388v-8.29z" opacity=".1" style="isolation:isolate"/><g opacity=".4" fill="#00c853"><path d="M0 9.735h32.717V7.499H0zM0 11.97v1.119q0 .564.018 1.116H32.7q.016-.552.018-1.116V11.97zM.465 18.675h31.788q.184-1.089.3-2.235H.164q.114 1.146.301 2.235zM1.575 23.142h29.567q.357-1.082.645-2.235H.931q.285 1.156.644 2.235zM3.459 27.615h25.8q.555-1.071 1.047-2.235H2.412q.488 1.162 1.047 2.235zM6.281 32.086h20.155a31.77 31.77 0 001.543-2.236H4.739a31.532 31.532 0 001.542 2.236zM8.126 34.321a34.49 34.49 0 002.21 2.235h12.045c.72-.666 1.465-1.41 2.209-2.235zM16.359 40.958a25.034 25.034 0 003.341-2.167h-6.683a25 25 0 003.342 2.167z"/></g><path d="M13.584 25.363a1.228 1.228 0 002.07.912.97.97 0 01.663-.268h.042v10.659S4.419 30.642 3.2 16.442h5.955a.97.97 0 00-.268-.662 1.229 1.229 0 111.785 0 .958.958 0 00-.264.658h5.951v8.314h-.042a.958.958 0 01-.658-.264 1.229 1.229 0 00-2.075.874z" fill="#00c853"/><path d="M29.515 16.442c-1.215 14.2-13.156 20.224-13.156 20.224V26.007h-.043a.966.966 0 00-.662.268 1.229 1.229 0 110-1.785.953.953 0 00.658.263h.042v-8.311h6.064a.958.958 0 01-.257.544 1.229 1.229 0 101.785 0 .973.973 0 01-.256-.544z" fill="#00e676"/><path d="M19.151 8.301a1.229 1.229 0 01-2.075.873.958.958 0 00-.658-.264h-.058v7.6h-5.951a.954.954 0 01.264-.658 1.229 1.229 0 10-1.785 0 .965.965 0 01.267.662H3.2q-.1-1.143-.1-2.356V3.181s9.5.646 13.255-3.112v7.587h.059a.965.965 0 00.662-.267 1.229 1.229 0 012.071.912z" fill="#00e676"/><path d="M29.614 3.112v10.972q0 1.214-.1 2.356H23.69a.978.978 0 00.261.548 1.229 1.229 0 11-1.785 0 .958.958 0 00.257-.546h-6.064v-7.6h.058a.954.954 0 01.658.264 1.229 1.229 0 100-1.785.965.965 0 01-.662.267h-.059V0c3.764 3.758 13.26 3.112 13.26 3.112z" fill="#00c853"/><path d="M10.282 8.942a1.191 1.191 0 01-.413-.068L8.7 8.423h-.571v.7a.646.646 0 00.358.546l1.414.615a1.031 1.031 0 00.716 0l1.43-.617a.641.641 0 00.358-.545v-.7h-.631l-1.035.437a1.223 1.223 0 01-.457.083z" fill="#f8fffb"/><path d="M7.123 7.509l2.816 1.085a1.116 1.116 0 00.724-.012l2.69-1.133v1.672l-.167.555h.48l-.172-.56V7.381c.116-.08.089-.18-.082-.242l-2.742-.973a1.243 1.243 0 00-.732.006L7.124 7.231c-.202.076-.202.2-.001.278zM10.434 23.092a.171.171 0 01-.171-.172v-.447a.171.171 0 01.342 0v.447a.171.171 0 01-.171.172zM11.936 23.714a.172.172 0 01-.172-.172.169.169 0 01.051-.121l.316-.316a.172.172 0 11.249.236l-.007.006-.316.316a.169.169 0 01-.121.051zM13.005 25.216h-.447a.172.172 0 110-.343h.447a.172.172 0 010 .343zM12.252 27.034a.17.17 0 01-.121-.05l-.316-.317a.172.172 0 01.242-.243l.317.317a.172.172 0 010 .242.167.167 0 01-.121.051zM8.616 27.034a.172.172 0 01-.121-.293l.316-.316a.172.172 0 01.243.243l-.317.316a.172.172 0 01-.121.05zM8.31 25.216h-.447a.172.172 0 110-.343h.447a.172.172 0 010 .343zM8.932 23.714a.169.169 0 01-.121-.051l-.316-.316a.171.171 0 01.235-.249l.007.007.317.316a.173.173 0 010 .243.17.17 0 01-.121.05zM11.12 27.101v.286a.4.4 0 01-.4.4h-.572a.417.417 0 01-.4-.467v-.219zM11.442 23.801a1.6 1.6 0 10-1.97 2.521.688.688 0 01.26.436h1.399a.762.762 0 01.292-.457 1.6 1.6 0 00.019-2.5zm-.151 1.357a.172.172 0 01-.171-.171.628.628 0 00-.628-.628.172.172 0 010-.343.973.973 0 01.971.971.172.172 0 01-.172.171zM9.732 26.758h.016-.016zM11.131 26.758h-.011zM22.276 6.036a.2.2 0 01.2-.2h1.709a.2.2 0 01.2.2v.328h.35v-.328a.548.548 0 00-.547-.547h-1.715a.548.548 0 00-.547.547v.328h.35zM20.341 6.714v2.047a.2.2 0 00.2.2h.779v-.634h1.094v.631h1.833v-.631h1.093v.631h.78a.2.2 0 00.2-.2V6.714z" fill="#f8fffb"/><path d="M24.6 8.677h.393v.911H24.6zM21.668 8.677h.393v.911h-.393z" fill="#f8fffb"/><path d="M25.337 9.308v.63h-1.093v-.63h-1.833v.63h-1.094v-.63h-.78a.546.546 0 01-.2-.037v1.7h5.973v-1.7a.55.55 0 01-.2.037zM22.927 25.917v-.45a.706.706 0 00-1.411 0v.45a.423.423 0 00-.282.4v.565a.425.425 0 00.424.423h1.128a.423.423 0 00.423-.423v-.565a.42.42 0 00-.282-.4zm-.564.679a.141.141 0 01-.282 0v-.282a.141.141 0 01.282 0zm.282-.7H21.8v-.424a.423.423 0 01.846 0z" fill="#f8fffb"/><path d="M24.049 24.012a.62.62 0 00.007-.1.848.848 0 00-.847-.847.829.829 0 00-.378.091 1.264 1.264 0 00-2.154.765.987.987 0 00.134 1.966h.289a.716.716 0 01.137-.138v-.285a.987.987 0 011.974 0v.285a.722.722 0 01.138.138h.286a1 1 0 001-.987.985.985 0 00-.586-.888z" fill="#f8fffb"/><path d="M51.61 4.742l-.231 1.232-.257.077a6.053 6.053 0 00-1.528-.709 5.4 5.4 0 00-1.553-.244 3.824 3.824 0 00-1.886.45 3.183 3.183 0 00-1.233 1.168 2.854 2.854 0 00-.422 1.467 2.185 2.185 0 00.462 1.386 4.351 4.351 0 001.138 1.014 18 18 0 001.836.963 24.745 24.745 0 012.2 1.193A5.033 5.033 0 0151.56 14.1a3.4 3.4 0 01.591 2.015 4.139 4.139 0 01-.655 2.246 4.553 4.553 0 01-1.848 1.643 5.869 5.869 0 01-2.683.6 8.352 8.352 0 01-2.156-.295 7.226 7.226 0 01-2-.86l.154-1.36.18-.077a5.768 5.768 0 001.9 1.116 6.047 6.047 0 002.028.373 4.06 4.06 0 001.976-.462 3.434 3.434 0 001.31-1.207 2.931 2.931 0 00.462-1.566 2.385 2.385 0 00-.475-1.476 4.061 4.061 0 00-1.156-1.039q-.68-.411-1.886-1a22.48 22.48 0 01-2.157-1.155 4.673 4.673 0 01-1.386-1.335 3.406 3.406 0 01-.564-1.976 3.958 3.958 0 01.629-2.17A4.4 4.4 0 0145.59 4.55a5.706 5.706 0 012.6-.577 8.311 8.311 0 013.42.769zM63.289 19.504l-.154.975H55.9l.051-3.85-.051-8.857h7.239l.1.154-.128.975-3.158-.076H57.18l-.026 4.569 2.619.026 2.258-.052.078.155-.1 1-2.339-.051-2.541.026v2.028l.025 2.9h2.619l3.388-.051zM74.713 8.671l-.257 1.155-.2.051a4.989 4.989 0 00-1.533-.835 5.525 5.525 0 00-1.809-.3 4.094 4.094 0 00-3.324 1.36 6.088 6.088 0 00-1.143 4 6.3 6.3 0 001.117 4.03 3.894 3.894 0 003.221 1.386 5.8 5.8 0 001.913-.334 6.5 6.5 0 001.758-.923l.18.076-.1 1.156a7.014 7.014 0 01-3.774 1.1 5.271 5.271 0 01-4.187-1.651 6.981 6.981 0 01-1.463-4.749 6.924 6.924 0 011.541-4.826 5.593 5.593 0 014.363-1.694 6.79 6.79 0 013.697.998zM87.6 14.267v1.72a4.231 4.231 0 01-1.258 3.388 5.253 5.253 0 01-3.7 1.207 5.056 5.056 0 01-3.619-1.194 4.389 4.389 0 01-1.233-3.4l.026-1.874-.023-6.342h1.284L79 15.833a3.6 3.6 0 00.924 2.734 4.57 4.57 0 005.545 0 3.676 3.676 0 00.95-2.734l-.052-8.061h1.284zM100.768 20.171v.18a4.174 4.174 0 01-1.129.282l-.231-.128q-1.9-2.566-3.337-4.929l-2.619.026v.924l.026 3.953H92.22l.051-3.85-.051-8.857 3.748-.025a4.374 4.374 0 013 .936 3.372 3.372 0 011.053 2.657 3.96 3.96 0 01-.744 2.388 4.624 4.624 0 01-2.131 1.566 59.415 59.415 0 003.622 4.877zm-7.316-5.647l2.67.051a3.58 3.58 0 001.938-1.133 3.047 3.047 0 00.655-2q0-2.515-2.953-2.67l-2.262.053zM114.04 20.479h-1.309l-.283-1.155-.95-2.542h-6.058l-1 2.491-.334 1.206h-1.283l5.107-12.707h1.438zm-2.927-4.749l-2.438-6.6h-.128l-2.67 6.6 2.567.025zM124.924 19.504l-.154.975h-7.239l.051-3.85-.051-8.857h7.239l.1.154-.129.975-3.157-.076h-2.772l-.026 4.569 2.618.026 2.259-.052.077.155-.1 1-2.336-.052-2.542.026v2.028l.026 2.9h2.618l3.389-.051zM136.913 9.274a6.667 6.667 0 011.463 4.608 7.248 7.248 0 01-1.553 4.98 5.584 5.584 0 01-4.4 1.745 5.311 5.311 0 01-4.2-1.668 6.9 6.9 0 01-1.476-4.724 6.974 6.974 0 011.553-4.864 5.681 5.681 0 014.429-1.709 5.329 5.329 0 014.184 1.632zm-8.857 4.788q0 5.468 4.416 5.467a4.309 4.309 0 003.44-1.36 6.086 6.086 0 001.18-4.082q0-5.338-4.466-5.339-4.569 0-4.57 5.314zM152.315 16.808v3.671h-1.335l-7.5-10.6h-.1l-.026 6.495.026 4.107h-1.18l.052-3.748-.027-8.959h1.335l7.5 10.628h.128V7.823l1.182-.076z" fill="#00c853"/><path d="M163.174 15.422l.051 5.057h-1.335l.077-4.98-.077-11.423h1.361zM178.472 16.808v3.671h-1.335l-7.5-10.6h-.1l-.026 6.495.026 4.107h-1.181l.052-3.748-.026-8.959h1.334l7.5 10.628h.127V7.823l1.182-.076zM184.788 16.526l.025 3.953h-1.258l.052-3.85-.052-8.857h1.284zM197.186 7.926l-.1 1.027-2.285-.1h-1.592l-.051 7.676.051 3.953h-1.258l.026-3.85-.026-7.779h-1.565l-2.336.1-.1-.128.1-1.053h9.061zM201.859 16.526l.025 3.953h-1.257l.051-3.85-.051-8.857h1.283zM216.466 20.479h-1.31l-.282-1.155-.95-2.542h-6.058l-1 2.491-.333 1.206h-1.284l5.106-12.707h1.438zm-2.927-4.749l-2.439-6.6h-.129l-2.67 6.6 2.568.025zM226.143 7.926l-.1 1.027-2.285-.1h-1.592l-.051 7.676.051 3.953h-1.258l.026-3.85-.026-7.779h-1.565l-2.336.1-.1-.128.1-1.053h9.061zM230.815 16.526l.026 3.953h-1.258l.051-3.85-.051-8.857h1.283zM239.85 20.479h-1.463l-4.646-12.707h1.31l.307 1.181 3.748 10.166h.1l4.133-10.114.308-1.233h1.283zM255.459 19.504l-.155.975h-7.239l.052-3.85-.052-8.857h7.235l.1.154-.128.975-3.158-.076h-2.773l-.025 4.569 2.618.026 2.26-.052.076.155-.1 1-2.336-.052-2.541.026v2.028l.025 2.9h2.618l3.389-.051z" fill="#fafafa"/><path d="M47.194 29.542v.536H45.3v6.09h-.657v-6.09h-1.88v-.536zM56.089 31.285a2.245 2.245 0 01.906.911 3.156 3.156 0 010 2.806 2.289 2.289 0 01-.906.911 2.864 2.864 0 01-2.627 0 2.3 2.3 0 01-.916-.916 3.1 3.1 0 010-2.8 2.263 2.263 0 01.916-.911 2.888 2.888 0 012.627 0zm-2.251.483a1.7 1.7 0 00-.7.692 2.6 2.6 0 000 2.278 1.7 1.7 0 00.7.686 1.992 1.992 0 00.94.226 1.944 1.944 0 00.925-.226 1.707 1.707 0 00.691-.686 2.6 2.6 0 000-2.278 1.711 1.711 0 00-.691-.692 1.955 1.955 0 00-.925-.225 2 2 0 00-.94.225zM70.378 30.077v2.5h2.585v.516h-2.585v2.529h2.867v.545h-3.534v-6.625h3.534v.536zM82.262 31.374a1.99 1.99 0 01.747 1.068v-3.229h.658v6.954h-.658v-1.411a1.992 1.992 0 01-.747 1.073 2.193 2.193 0 01-1.33.4 2.429 2.429 0 01-1.245-.319 2.184 2.184 0 01-.855-.916 3.358 3.358 0 010-2.8 2.155 2.155 0 01.85-.911 2.455 2.455 0 011.25-.316 2.182 2.182 0 011.33.407zm-2.547.728a2.417 2.417 0 000 3 1.824 1.824 0 001.386.55 1.919 1.919 0 00.982-.254 1.782 1.782 0 00.686-.719 2.449 2.449 0 000-2.152 1.775 1.775 0 00-.686-.719 1.909 1.909 0 00-.982-.254 1.82 1.82 0 00-1.386.548zM93.9 31.036v5.131h-.658v-1.269a1.783 1.783 0 01-.714 1.015 2.07 2.07 0 01-1.184.347 1.956 1.956 0 01-1.461-.568 2.28 2.28 0 01-.56-1.668v-2.988h.658v2.931a1.805 1.805 0 00.423 1.292 1.515 1.515 0 001.156.447 1.585 1.585 0 001.226-.493 2.067 2.067 0 00.456-1.453v-2.724zM103.6 31.486a2.147 2.147 0 01.785 1.373h-.685a1.464 1.464 0 00-.573-.964 1.872 1.872 0 00-1.156-.352 1.9 1.9 0 00-.916.225 1.637 1.637 0 00-.668.692 2.741 2.741 0 000 2.283 1.632 1.632 0 00.668.69 1.889 1.889 0 00.916.226 1.866 1.866 0 001.156-.353 1.457 1.457 0 00.573-.963h.686a2.139 2.139 0 01-.785 1.372 2.5 2.5 0 01-1.621.517 2.637 2.637 0 01-1.3-.314 2.2 2.2 0 01-.888-.913 3.242 3.242 0 010-2.809 2.2 2.2 0 01.888-.911 2.638 2.638 0 011.3-.316 2.509 2.509 0 011.62.517zM113.444 31.374a2.038 2.038 0 01.756 1.068v-1.406h.649v5.131h-.649v-1.411a2.039 2.039 0 01-.756 1.073 2.193 2.193 0 01-1.33.4 2.434 2.434 0 01-1.245-.319 2.184 2.184 0 01-.855-.916 3.358 3.358 0 010-2.8 2.155 2.155 0 01.85-.911 2.455 2.455 0 011.25-.316 2.182 2.182 0 011.33.407zm-2.547.728a2.417 2.417 0 000 3 1.824 1.824 0 001.386.55 1.919 1.919 0 00.982-.254 1.782 1.782 0 00.686-.719 2.449 2.449 0 000-2.152 1.775 1.775 0 00-.686-.719 1.909 1.909 0 00-.982-.254 1.82 1.82 0 00-1.383.548zM122.988 35.584v.583h-.611a1.545 1.545 0 01-1.109-.353 1.6 1.6 0 01-.367-1.188v-3.017h-.78v-.573h.78v-1.294h.668v1.3h1.409v.573h-1.409v3.025a1.066 1.066 0 00.2.747.952.952 0 00.695.2zM131.85 35.342a1.4 1.4 0 00.564-.939h.7a2.091 2.091 0 01-.78 1.325 2.52 2.52 0 01-1.616.507 2.641 2.641 0 01-1.3-.314 2.2 2.2 0 01-.888-.913 3.242 3.242 0 010-2.809 2.2 2.2 0 01.888-.911 2.642 2.642 0 011.3-.316 2.572 2.572 0 011.3.316 2.135 2.135 0 01.837.841 2.356 2.356 0 01.286 1.146 2.828 2.828 0 01-.037.48h-4.248a2.156 2.156 0 00.268 1.085 1.608 1.608 0 00.672.643 1.954 1.954 0 00.893.207 1.9 1.9 0 001.161-.348zm-2.05-3.63a1.635 1.635 0 00-.672.634 2.155 2.155 0 00-.277 1.067h3.628a1.894 1.894 0 00-.207-1.062 1.539 1.539 0 00-.658-.639 1.989 1.989 0 00-.9-.207 2.01 2.01 0 00-.914.207z" fill="#fafafa" opacity=".4"/><path d="M146.116 37.116h-.658v-8.383h.658z" fill="#00c853" opacity=".4"/><path d="M162.562 29.542v.536h-1.888v6.09h-.659v-6.09h-1.88v-.536zM171.458 31.285a2.26 2.26 0 01.907.911 3.165 3.165 0 010 2.806 2.3 2.3 0 01-.907.911 2.864 2.864 0 01-2.627 0 2.294 2.294 0 01-.916-.916 3.1 3.1 0 010-2.8 2.257 2.257 0 01.916-.911 2.888 2.888 0 012.627 0zm-2.251.483a1.7 1.7 0 00-.7.692 2.6 2.6 0 000 2.278 1.694 1.694 0 00.7.686 1.991 1.991 0 00.939.226 1.948 1.948 0 00.926-.226 1.7 1.7 0 00.691-.686 2.6 2.6 0 000-2.278 1.7 1.7 0 00-.691-.692 1.959 1.959 0 00-.926-.225 2 2 0 00-.939.225zM185.748 29.542v6.626h-.668v-6.626zM195.572 31.51a2.283 2.283 0 01.56 1.668v2.989h-.649v-2.942a1.8 1.8 0 00-.423-1.283 1.518 1.518 0 00-1.156-.446 1.591 1.591 0 00-1.227.493 2.074 2.074 0 00-.455 1.453v2.726h-.668v-5.132h.668v1.259a1.782 1.782 0 01.714-1.006 2.074 2.074 0 011.185-.348 1.94 1.94 0 011.451.569zM205.92 31.51a2.283 2.283 0 01.559 1.668v2.989h-.648v-2.942a1.8 1.8 0 00-.423-1.283 1.518 1.518 0 00-1.156-.446 1.591 1.591 0 00-1.227.493 2.069 2.069 0 00-.455 1.453v2.726h-.67v-5.132h.668v1.259a1.778 1.778 0 01.714-1.006 2.071 2.071 0 011.184-.348 1.943 1.943 0 011.454.569zM215.882 31.285a2.26 2.26 0 01.907.911 3.165 3.165 0 010 2.806 2.3 2.3 0 01-.907.911 2.864 2.864 0 01-2.627 0 2.294 2.294 0 01-.916-.916 3.1 3.1 0 010-2.8 2.257 2.257 0 01.916-.911 2.888 2.888 0 012.627 0zm-2.251.483a1.692 1.692 0 00-.7.692 2.6 2.6 0 000 2.278 1.689 1.689 0 00.7.686 1.991 1.991 0 00.939.226 1.948 1.948 0 00.926-.226 1.707 1.707 0 00.691-.686 2.6 2.6 0 000-2.278 1.711 1.711 0 00-.691-.692 1.959 1.959 0 00-.926-.225 2 2 0 00-.939.225zM224.579 35.424l1.72-4.388h.714l-2.067 5.131h-.752l-2.067-5.131h.714zM235.759 31.374a2.041 2.041 0 01.755 1.068v-1.406h.649v5.131h-.649v-1.411a2.042 2.042 0 01-.755 1.073 2.2 2.2 0 01-1.331.4 2.434 2.434 0 01-1.245-.319 2.178 2.178 0 01-.855-.916 3.358 3.358 0 010-2.8 2.155 2.155 0 01.85-.911 2.457 2.457 0 011.25-.316 2.187 2.187 0 011.331.407zm-2.547.728a2.41 2.41 0 000 3 1.82 1.82 0 001.385.55 1.925 1.925 0 00.983-.254 1.786 1.786 0 00.685-.719 2.449 2.449 0 000-2.152 1.779 1.779 0 00-.685-.719 1.915 1.915 0 00-.983-.254 1.817 1.817 0 00-1.385.548zM245.3 35.584v.583h-.61a1.545 1.545 0 01-1.109-.353 1.6 1.6 0 01-.366-1.188v-3.017h-.781v-.573h.781v-1.294h.667v1.3h1.409v.573h-1.409v3.025a1.066 1.066 0 00.2.747.954.954 0 00.695.2zM254.164 35.342a1.4 1.4 0 00.564-.939h.7a2.1 2.1 0 01-.781 1.325 2.52 2.52 0 01-1.616.507 2.641 2.641 0 01-1.3-.314 2.2 2.2 0 01-.888-.913 3.242 3.242 0 010-2.809 2.2 2.2 0 01.888-.911 2.642 2.642 0 011.3-.316 2.578 2.578 0 011.3.316 2.145 2.145 0 01.836.841 2.357 2.357 0 01.287 1.146 2.823 2.823 0 01-.038.48h-4.248a2.176 2.176 0 00.267 1.085 1.616 1.616 0 00.673.643 1.954 1.954 0 00.893.207 1.9 1.9 0 001.163-.348zm-2.049-3.627a1.635 1.635 0 00-.672.634 2.155 2.155 0 00-.277 1.067h3.628a1.9 1.9 0 00-.207-1.062 1.539 1.539 0 00-.658-.639 2.091 2.091 0 00-1.814 0z" fill="#fafafa" opacity=".4"/></svg>